<?xml version="1.0" encoding="utf-8"?>
<!-- Generator: Adobe Illustrator 23.0.6, SVG Export Plug-In . SVG Version: 6.00 Build 0)  -->
<svg version="1.1" id="Layer_1" xmlns="http://www.w3.org/2000/svg" xmlns:xlink="http://www.w3.org/1999/xlink" x="0px" y="0px"
	 viewBox="0 0 93 105" style="enable-background:new 0 0 93 105;" xml:space="preserve">
<style type="text/css">
	.st0{fill:#83B8B9;}
	.st1{fill:#75A1A5;}
	.st2{fill:none;stroke:#587A7B;stroke-width:0.75;stroke-linecap:round;stroke-linejoin:round;stroke-miterlimit:10;}
	.st3{fill:#F0A86A;}
	.st4{opacity:0.21;fill:#FF6705;enable-background:new    ;}
</style>
<g id="BACKGROUND">
	<g>
		<g>
			<g>
				<path class="st0" d="M63.7,43.2c0,0,2.9-6.2,7.8-5.4c4.9,0.8,11.4,7,6.5,12.2C73,55.1,61.6,52,63.7,43.2z"/>
				<path class="st0" d="M58.4,33.1c0,0-4-5.9-0.7-9.9c3.4-4,12.4-6.4,14.4,0.8C74.2,31.2,65.2,39.7,58.4,33.1z"/>
				<path class="st1" d="M47.1,40.2c0,0-5.2-3-4.1-7.3c1.1-4.3,7.1-9.4,11.3-4.6C58.3,33,54.6,42.7,47.1,40.2z"/>
				<path class="st1" d="M36.4,29.2c0,0-6,2.8-9.1-0.9s-3.9-12.3,2.9-13C37.1,14.7,43.4,24.1,36.4,29.2z"/>
				<path class="st0" d="M34.8,42.7c0,0-6,2.8-9.1-0.9s-3.9-12.3,2.9-13C35.5,28.2,41.8,37.6,34.8,42.7z"/>
				<path class="st1" d="M14.8,47.3c0,0,3.6-5,8.4-3.6c4.8,1.4,10.5,7.7,4.9,11.5C22.6,59,11.7,54.7,14.8,47.3z"/>
				<path class="st2" d="M51.2,68.4c0,0-2.1-29.6,20.8-24.4"/>
				<path class="st1" d="M61.2,52.4c0,0,2-4.3,5.3-3.7c3.4,0.5,7.8,4.8,4.4,8.4C67.6,60.6,59.8,58.5,61.2,52.4z"/>
				<path class="st2" d="M52.7,69.7c0,0-1.4-20.3,14.2-16.7"/>
				<path class="st2" d="M65.3,25.9c0,0-17.7,21.7-16.6,45.7c0,0-4.8-26.3,0.9-40.4"/>
				<path class="st2" d="M32.2,22.3c0,0,13.8,14.3,11.6,46.5c0,0-2.1-24.9-15.1-34.6"/>
				<path class="st2" d="M17.3,49.3c0,0,14.4-6.8,27.5,22.2"/>
				<g>
					<path class="st3" d="M30.2,63.5h35c0,0,3.5,31.1-13.1,32.6C35.5,97.5,28.1,85.8,30.2,63.5z"/>
					<path class="st4" d="M33.3,87.2c3.5,6.5,9.8,9.6,18.8,8.8c9.7-0.9,12.5-11.7,13.2-20.7C55.1,80.1,44.4,84.1,33.3,87.2z"/>
				</g>
			</g>
		</g>
	</g>
</g>
</svg>
