<?xml version="1.0" encoding="utf-8"?>
<!-- Generator: Adobe Illustrator 23.0.6, SVG Export Plug-In . SVG Version: 6.00 Build 0)  -->
<svg version="1.1" id="a62e712f-3cb4-4d7a-829a-d896e102ddef"
	 xmlns="http://www.w3.org/2000/svg" xmlns:xlink="http://www.w3.org/1999/xlink" x="0px" y="0px" viewBox="0 0 990.1 695.4"
	 style="enable-background:new 0 0 990.1 695.4;" xml:space="preserve">
<style type="text/css">
	.st0{fill:#B55E1C;}
	.st1{opacity:0.1;fill:#B55E1C;enable-background:new    ;}
	.st2{fill:#E6E6E6;}
	.st3{fill:#3F3D56;}
	.st4{opacity:0.29;fill:#008B91;enable-background:new    ;}
	.st5{fill:none;stroke:#3F3D56;stroke-width:2;stroke-miterlimit:10;}
	.st6{fill:#FFFFFF;}
	.st7{fill:#A0616A;}
	.st8{fill:#2F2E41;}
	.st9{opacity:0.1;enable-background:new    ;}
	.st10{fill:#575A89;}
</style>
<title>review</title>
<ellipse class="st0" cx="40.7" cy="173.9" rx="40.7" ry="3.1"/>
<path class="st1" d="M32.6,7.2l0-0.2l-3.3-1.7h-0.5L28.6,5h-6.8l-1.6,0.4h-5.8l-1.6,1.8l0,0.1c-0.1,0.6-2.4,15.6,3.6,20.4l2.5,1.1
	h1.6l-0.3-0.6l1.4,0.6h4.6l0.1-0.1l2.7-1l0.1-0.1C29.3,27.3,35.1,20.5,32.6,7.2z"/>
<rect x="21.8" y="22.1" class="st2" width="2.7" height="6.8"/>
<rect x="20.6" y="37.6" class="st3" width="4.8" height="130"/>
<rect x="19.4" y="35.4" class="st3" width="7.2" height="4.4"/>
<polygon class="st3" points="16.7,27.3 21.2,32 19.4,35.4 23.1,36.1 26.6,35.4 24.4,31.7 28.8,27.3 "/>
<path class="st3" d="M13.2,7.3L11,5.2l1.6-1.6H33l1.6,1.8l-2.4,1.8C32.2,7.3,19.4,6.8,13.2,7.3z"/>
<path class="st3" d="M32.6,7.2l0-0.2l-3.3-1.7l-1.5-0.8L19.4,4l-4.8,1.1l-0.2,0.2l-1.6,1.8l0,0.1c-0.1,0.6-2.4,15.6,3.6,20.4
	l2.5,1.1l2.1,0.9l-0.5-0.9l-0.8-1.6c-0.8-4.7-2.7-17.2-1.5-19.8l4.9-1.5l4.3,1.6c0.3,1.9,2.2,15-1.2,19.6l-0.1,0.1v1.5l2.8-1
	l0.1-0.1C29.3,27.3,35.1,20.5,32.6,7.2z M28.5,27L27,27.5v-0.1c3.7-5.3,1.3-19.7,1.2-20.3l0-0.2l-4.2-1.5L23.1,5l-0.9,0.3l-4.5,1.4
	l-0.1,0.1c-1.7,3,1.2,19.8,1.4,20.5v0.1l0.3,0.6L16.9,27c-5.3-4.3-3.5-18.1-3.3-19.5L15,5.8l2.1-0.5l2.3-0.5l3.7,0.2l4.4,0.3l0,0
	l4.3,2.2C34,19.6,29.1,26.2,28.5,27L28.5,27z"/>
<ellipse class="st3" cx="23.1" cy="3.6" rx="7.2" ry="3.6"/>
<path class="st3" d="M19.4,160.9l-4.3,13.3c0,0,6.7,3.6,15.8,0l-4.3-13.3H19.4z"/>
<ellipse class="st0" cx="23.1" cy="20.8" rx="2.2" ry="2.1"/>
<path class="st0" d="M102.3,97.5c1.1,4.1,5,6.6,5,6.6s2-4.1,0.9-8.1c-1.1-4-5-6.6-5-6.6S101.1,93.5,102.3,97.5z"/>
<path class="st2" d="M103.9,96.7c3.1,2.9,3.5,7.4,3.5,7.4s-4.7-0.3-7.8-3.2s-3.5-7.4-3.5-7.4S100.8,93.7,103.9,96.7z"/>
<path class="st4" d="M257.5,96.7L149,126.6l99-54c-4.5-8-10.2-15.3-16.8-21.8l-96,51.2l80.4-63.6C204,30.9,191,25.9,177.3,23.7
	l-44.5,72l29.5-73.3c-0.4,0-0.9,0-1.3,0c-54.7,0-99,43-99,96c0,17.5,4.9,34.7,14.3,49.7h169.4C259,146.7,263.3,121.1,257.5,96.7
	L257.5,96.7z"/>
<path class="st0" d="M249,159.2c0-8.2-4.3-14.8-9.6-14.8c-3.3,0-6.3,2.6-8,6.6c-0.6-0.2-1.2-0.4-1.8-0.4c-1.6,0-3.1,0.8-4.3,2.1
	c-1.5-5-4.8-8.4-8.6-8.4c-3.5,0-6.6,3-8.3,7.4c-0.9-0.8-2.1-1.2-3.3-1.2c-4.1,0-7.4,5.1-7.4,11.4c0,2.1,0.4,4.2,1.2,6.1H247
	C248.2,165.6,249,162.5,249,159.2z"/>
<path class="st5" d="M152.2,59.5L152.2,59.5c0-19.8,16.6-35.9,37-35.9l0,0"/>
<path class="st0" d="M165.6,64.2c-3,10.6-13.1,17.2-13.1,17.2s-5.4-10.6-2.4-21.3c3-10.6,13.1-17.2,13.1-17.2S168.6,53.6,165.6,64.2
	z"/>
<path class="st0" d="M138.7,64.2c3,10.6,13.1,17.2,13.1,17.2s5.4-10.6,2.4-21.3c-3-10.6-13.1-17.2-13.1-17.2S135.7,53.6,138.7,64.2z
	"/>
<path class="st3" d="M143,61.9c8.1,7.7,9.1,19.5,9.1,19.5s-12.2-0.6-20.3-8.3c-8.1-7.7-9.1-19.5-9.1-19.5S134.9,54.2,143,61.9z"/>
<path class="st3" d="M161.3,61.9c-8.1,7.7-9.1,19.5-9.1,19.5s12.2-0.6,20.3-8.3s9.1-19.5,9.1-19.5S169.4,54.2,161.3,61.9z"/>
<path class="st0" d="M183.2,31.3c1.3-4.7,5.8-7.6,5.8-7.6s2.4,4.7,1.1,9.4s-5.8,7.6-5.8,7.6S181.9,36,183.2,31.3z"/>
<path class="st0" d="M195.1,31.3c-1.3-4.7-5.8-7.6-5.8-7.6s-2.4,4.7-1.1,9.4s5.8,7.6,5.8,7.6S196.4,36,195.1,31.3z"/>
<path class="st3" d="M193.2,32.3c-3.6-3.4-4-8.6-4-8.6s5.4,0.3,9,3.7c3.6,3.4,4,8.6,4,8.6S196.8,35.7,193.2,32.3z"/>
<path class="st3" d="M185.1,32.3c3.6-3.4,4-8.6,4-8.6s-5.4,0.3-9,3.7c-3.6,3.4-4,8.6-4,8.6S181.5,35.7,185.1,32.3z"/>
<path class="st3" d="M228.7,128.2h-4.4v-23.7c0-1.3-1.1-2.4-2.5-2.4h-7.6V81.2c0-1.3-1.1-2.4-2.5-2.4H93.9c-1.4,0-2.5,1.1-2.5,2.4
	V102h-7.6c-1.4,0-2.5,1.1-2.5,2.4v23.7h-4.4c-1.4,0-2.5,1.1-2.5,2.4v35c0,1.3,1.1,2.4,2.5,2.4h151.8c1.4,0,2.5-1.1,2.5-2.4v-35
	C231.2,129.3,230.1,128.2,228.7,128.2z"/>
<path class="st0" d="M206.6,120.8c-2.3,3.6-1.6,8-1.6,8s4.5-1.3,6.8-4.9c2.3-3.6,1.6-8,1.6-8S208.9,117.2,206.6,120.8z"/>
<path class="st2" d="M208.4,121.4c-0.1,4.2-3.3,7.5-3.3,7.5s-3-3.5-2.8-7.7c0.1-4.2,3.3-7.5,3.3-7.5S208.5,117.2,208.4,121.4z"/>
<rect x="81.3" y="128.2" class="st2" width="143" height="2.4"/>
<rect x="91.4" y="102.1" class="st2" width="122.8" height="2.4"/>
<ellipse class="st0" cx="189.2" cy="42.6" rx="2.5" ry="2.4"/>
<polygon class="st0" points="108.3,99.4 174.7,81.1 184.6,114.9 179.8,116.3 183.5,128.7 167,119.8 118.2,133.2 "/>
<path class="st6" d="M148.6,114.4l-1.5-0.7c-5.3-2.6-8.7-4.2-9.6-7.2c-0.7-2.3,0.6-4.8,3-5.5c0.1,0,0.1,0,0.1,0
	c1.4-0.4,2.9-0.2,4.1,0.7c0.6-1.3,1.8-2.3,3.2-2.6c2.4-0.7,5,0.6,5.7,3c0,0.1,0,0.1,0,0.1c0.9,3-1.2,6.2-4.3,11L148.6,114.4z"/>
<path class="st7" d="M30.7,81c0,0-1.7,5-0.8,6.1c0.9,1.1-5.7-3.3-5.7-3.3l3.6-4L30.7,81z"/>
<ellipse class="st8" cx="26.8" cy="72.7" rx="8.5" ry="8.2"/>
<polygon class="st7" points="59.8,136.8 55.5,140.1 53,136.2 57.4,133.3 "/>
<path class="st8" d="M53.7,161.7l1.1,5.3l3.2,4.2c0,0,8.7,2.6,2.8,3.8s-7.2-0.9-7.2-0.9l-4.2-3.5v4.8h-2.7l-0.6-6.8
	c0,0-0.4-2,1.3-4.2l0.4-3.3L53.7,161.7z"/>
<path class="st7" d="M31.7,95.8l1.5,8.5c0,0,16.1-1.7,17.2,1.5c1.1,3.1,1.5,4,1.5,4l-3.2,1.1l-1.5-2.7c-0.9-0.3-2-0.3-2.8,0.2
	c-1.5,0.7-14.8,2.6-15.7,0.2c-0.9-2.4-3.6-11.2-3.6-11.2l4-3.1L31.7,95.8z"/>
<path class="st9" d="M31.7,95.8l1.5,8.5c0,0,16.1-1.7,17.2,1.5c1.1,3.1,1.5,4,1.5,4l-3.2,1.1l-1.5-2.7c-0.9-0.3-2-0.3-2.8,0.2
	c-1.5,0.7-14.8,2.6-15.7,0.2c-0.9-2.4-3.6-11.2-3.6-11.2l4-3.1L31.7,95.8z"/>
<path class="st8" d="M40.6,120.2l1.3,4.4l3.4,16.9c0,0,0.4,12.5,0.9,13.9c0.6,1.5,0.6,1.7,0,2.2c-0.6,0.6-1.7,2.4,0,3.5
	c1.7,1.1,7.8,2.4,8,1.1s0.2-3.3,0-4.2c-0.2-0.9,0.6-15.2,0.6-15.2l-2.3-21.8l-7.8-3.5L40.6,120.2z"/>
<path class="st9" d="M40.6,120.2l1.3,4.4l3.4,16.9c0,0,0.4,12.5,0.9,13.9c0.6,1.5,0.6,1.7,0,2.2c-0.6,0.6-1.7,2.4,0,3.5
	c1.7,1.1,7.8,2.4,8,1.1s0.2-3.3,0-4.2c-0.2-0.9,0.6-15.2,0.6-15.2l-2.3-21.8l-7.8-3.5L40.6,120.2z"/>
<path class="st8" d="M48.8,102.9l4.2,7.7c0,0,23.9,10.3,21.8,14.5c-2.1,4.2-13.6,12.1-13.6,12.1s-0.6,3.1-2.3,2.2
	c-1.7-0.9-5.9-5.7-5.5-6.2c0.4-0.5,1.7-1.8,2.3-1.7s7.2-4.8,7.2-4.8L51.4,124c0,0-13.6-0.4-14.4-6.6s0-7.3,0-7.3l-0.9-2l7.8-4.6
	L48.8,102.9z"/>
<path class="st8" d="M54.6,133.4l-4,3.5c0,0-3.4-1.5-5.5-0.9c-2.1,0.6-5.7,0.9-5.7,0.9l0.6,3.1l4.8-0.9l-3.9,5.3c0,0,0,8.3,2.5,8.3
	c2.5,0,1.7-5,1.7-5l7.6-5.7c0,0,3.8-1.5,4.2-1.5S54.6,133.4,54.6,133.4z"/>
<ellipse class="st7" cx="29.9" cy="76.2" rx="6.4" ry="6.2"/>
<path class="st10" d="M23.6,81.1c0,0,3-0.7,4,0s1.1,2.4,2.5,2.6c1.3,0.2,2.5,0.2,2.7,0.4c0.2,0.2,4.5,5.3,4.5,5.3s2.7,1.5,3.2,3.5
	s6.3,8.8,7,9.5c0.8,0.7-4.9,4.4-6.8,5.7c-1.9,1.3-7.4,1.8-9.1-1.1C29.8,104,20.5,84.9,23.6,81.1z"/>
<path class="st7" d="M30.8,93l1.5,8.5c0,0,16.1-1.7,17.2,1.5s1.5,4,1.5,4l-3.2,1.1l-1.5-2.7c-0.9-0.3-2-0.3-2.8,0.2
	c-1.5,0.7-14.8,2.6-15.7,0.2c-0.9-2.4-3.6-11.2-3.6-11.2l4-3.1L30.8,93z"/>
<path class="st10" d="M27.2,81.8c0,0,4.6,9.3,4.2,11.9c-0.4,2.6-1.7,0.7-1.7,0.7s-1.7-2.6-2.5-1.1c-0.8,1.5-1.7,3.5-2.5,3.3
	c-0.8-0.2-4.9-13.8-2.6-15C24.3,80.4,27.2,81.8,27.2,81.8z"/>
<ellipse class="st8" cx="17.6" cy="61.9" rx="8.5" ry="8.2"/>
<path class="st8" d="M10.2,68.7c3.8,2.7,9.1,1.8,11.9-1.9c0.6-0.7,1-1.6,1.3-2.5c-0.6,4.5-4.8,7.7-9.5,7.2c-4.6-0.6-8-4.7-7.4-9.2
	c0.1-0.5,0.2-0.9,0.3-1.3C6.4,64,7.7,66.9,10.2,68.7z"/>
<ellipse class="st8" cx="24.5" cy="74.1" rx="6.2" ry="6"/>
<ellipse class="st8" cx="29.8" cy="71.8" rx="5.5" ry="4.2"/>
<ellipse class="st7" cx="30" cy="76.8" rx="1.2" ry="2.1"/>
<path class="st8" d="M46.9,108c0,0,3.4-1.9,4-1.4c0.6,0.5,0.9,1.9,0.9,1.9l-3.9,1.5l-1.1-2H46.9z"/>
</svg>
