<?xml version="1.0" encoding="utf-8"?>
<!-- Generator: Adobe Illustrator 23.0.6, SVG Export Plug-In . SVG Version: 6.00 Build 0)  -->
<svg version="1.1" id="Layer_3" xmlns="http://www.w3.org/2000/svg" xmlns:xlink="http://www.w3.org/1999/xlink" x="0px" y="0px"
	 viewBox="0 0 329.6 311.2" style="enable-background:new 0 0 329.6 311.2;" xml:space="preserve">
<style type="text/css">
	.st0{fill:#976947;}
	.st1{fill:#C18E59;}
	.st2{fill:#F5B953;}
	.st3{fill:#8892A0;}
</style>
<path class="st0" d="M138.3,243.3h37.6v40.9h-37.6V243.3z"/>
<path class="st1" d="M16,225.1h282.1v18.2H16V225.1z"/>
<path class="st0" d="M34.8,225.1v-54.5c0-15.1,12.6-27.3,28.2-27.3h188.1c15.6,0,28.2,12.2,28.2,27.3v54.5"/>
<path class="st1" d="M251.1,143.3H63c-12.3,0-22.7,7.6-26.6,18.2h148.8c5.2,0,9.4,4.1,9.4,9.1v27.3c0,5,4.2,9.1,9.4,9.1
	s9.4-4.1,9.4-9.1v-18.2c0-5,4.2-9.1,9.4-9.1s9.4,4.1,9.4,9.1v9.1c0,5,4.2,9.1,9.4,9.1s9.4-4.1,9.4-9.1v-18.2c0-5,4.2-9.1,9.4-9.1
	h17.2C273.8,150.9,263.4,143.3,251.1,143.3z"/>
<path class="st0" d="M81.8,143.3V88.7c0-15.1,12.6-27.3,28.2-27.3h94c15.6,0,28.2,12.2,28.2,27.3v54.5"/>
<path class="st1" d="M204.1,61.5h-94c-12.3,0-22.7,7.6-26.6,18.2h64.2c5.2,0,9.4,4.1,9.4,9.1V116c0,5,4.2,9.1,9.4,9.1
	s9.4-4.1,9.4-9.1V97.8c0-5,4.2-9.1,9.4-9.1s9.4,4.1,9.4,9.1v9.1c0,5,4.2,9.1,9.4,9.1s9.4-4.1,9.4-9.1V88.7c0-5,4.2-9.1,9.4-9.1h7.8
	C226.8,69,216.4,61.5,204.1,61.5z"/>
<path class="st2" d="M157.1,29.6c0-7.8-6.7-14-14.9-13.6c-7.6,0.4-13.3,7-13.3,14.4c0,5.3,2.4,10.3,6.6,13.6l21.6,17.4l21.6-17.4
	c4.2-3.4,6.6-8.4,6.6-13.6c0-7.4-5.7-14-13.3-14.4C163.8,15.6,157.1,21.9,157.1,29.6"/>
<path class="st3" d="M16,279.6h282.1v9.1H16V279.6z"/>
</svg>
