<?xml version="1.0" encoding="utf-8"?>
<!-- Generator: Adobe Illustrator 23.0.6, SVG Export Plug-In . SVG Version: 6.00 Build 0)  -->
<svg version="1.1" id="Layer_1" xmlns="http://www.w3.org/2000/svg" xmlns:xlink="http://www.w3.org/1999/xlink" x="0px" y="0px"
	 viewBox="0 0 1920 1080" style="enable-background:new 0 0 1920 1080;" xml:space="preserve">
<style type="text/css">
	.st0{opacity:0.74;fill:#FBFCEE;}
	.st1{opacity:0.3;}
	.st2{fill:#FFFFFF;}
	.st3{fill:#65B8BA;}
	.st4{fill:#5CA1A6;}
	.st5{fill:none;stroke:#437B7C;stroke-width:0.75;stroke-linecap:round;stroke-linejoin:round;stroke-miterlimit:10;}
	.st6{opacity:0.3;fill:#C5D0DB;}
	.st7{opacity:0.1;fill:#002638;}
	.st8{fill:#C8969E;}
	.st9{opacity:0.15;fill:#000E23;}
	.st10{fill:#768697;}
	.st11{fill:#5A6D7E;}
	.st12{fill:#919FB0;}
	.st13{fill:none;stroke:#000E23;stroke-width:1.9477;stroke-miterlimit:10;}
	.st14{opacity:0.3;fill:#000E23;}
	.st15{fill:#002638;}
	.st16{fill:#FFAA57;}
	.st17{opacity:0.2;fill:#002638;}
	.st18{fill:#00314E;}
	.st19{opacity:0.5;fill:#D66E48;}
	.st20{fill:#002A3D;}
	.st21{fill:#FFD7CC;}
	.st22{opacity:0.5;fill:#F09F9E;}
	.st23{fill:#000E23;}
	.st24{fill:#D99991;}
	.st25{fill:#D57A7A;}
	.st26{opacity:0.1;}
	.st27{fill:#090900;}
	.st28{fill:#D66E48;}
	.st29{fill:none;stroke:#FFAA57;stroke-width:1.4495;stroke-miterlimit:10;}
	.st30{fill:#401B2A;}
	.st31{fill:#FFC1AC;}
	.st32{fill:#E6AF90;}
	.st33{fill:#E88D8D;}
	.st34{opacity:0.6;fill:#7B3838;}
	.st35{fill:#FFDD77;}
	.st36{opacity:0.1;fill:#00314E;}
	.st37{fill:#FFF2D1;}
	.st38{opacity:0.1;fill:#000E23;}
	.st39{opacity:0.2;fill:#000E23;}
	.st40{fill:#8795B7;}
	.st41{fill:#617685;}
	.st42{fill:#B77A85;}
	.st43{fill:#FDD0AD;}
	.st44{fill:#32314C;}
	.st45{opacity:0.1;fill:#001627;}
	.st46{fill:#A3B2CA;}
	.st47{fill:#EBB291;}
	.st48{fill:#FFD2AE;}
	.st49{fill:#E5B082;}
	.st50{fill:#F48C4B;}
	.st51{fill:#FF6161;}
	.st52{fill:none;stroke:#FFFFFF;stroke-width:1.1338;stroke-linecap:round;stroke-miterlimit:10;}
	.st53{opacity:0.1;fill:#002A3D;}
	.st54{fill:#FFC9A8;}
	.st55{fill:#008B91;}
	.st56{opacity:0.2;fill:#002A3D;}
	.st57{fill:#FFEDBE;}
	.st58{opacity:5.000000e-02;fill:#00314E;}
	.st59{fill:#413D59;}
	.st60{fill:#F19B90;}
	.st61{fill:#BC705B;}
	.st62{fill:#001627;}
	.st63{opacity:8.000000e-02;fill:#00314E;}
	.st64{opacity:5.000000e-02;}
</style>
<g>
	<g>
		<g>
			<rect x="363" y="200" class="st0" width="443.1" height="362"/>
			<g class="st1">
				<polygon class="st2" points="806.1,226.1 476,562 616.8,562 806.1,369.4 				"/>
				<polygon class="st2" points="609.6,200 363,450.9 363,536 693.2,200 				"/>
			</g>
		</g>
		<g>
			<path class="st3" d="M671.4,476.7c0,0,5-10.3,13.7-9.1c8.7,1.3,20.1,11.6,11.4,20.3C687.9,496.6,667.7,491.4,671.4,476.7z"/>
			<path class="st3" d="M662.1,460c0,0-7.1-9.8-1.2-16.5c5.9-6.6,21.9-10.7,25.4,1.3C689.8,456.8,674,471,662.1,460z"/>
			<path class="st4" d="M642.1,471.7c0,0-9.2-5-7.2-12.1c2-7.1,12.6-15.6,19.8-7.7C662,459.8,655.4,476,642.1,471.7z"/>
			<path class="st4" d="M623.3,453.5c0,0-10.5,4.6-16-1.5c-5.5-6.1-6.9-20.3,5.1-21.5C624.5,429.4,635.7,445,623.3,453.5z"/>
			<path class="st3" d="M620.5,476c0,0-10.5,4.6-16-1.5c-5.5-6.1-6.9-20.3,5.1-21.5C621.7,451.8,632.9,467.4,620.5,476z"/>
			<path class="st4" d="M585.3,483.6c0,0,6.3-8.3,14.8-6c8.4,2.3,18.4,12.7,8.7,19.1C599.1,503,579.8,495.8,585.3,483.6z"/>
			<path class="st5" d="M649.5,518.6c0,0-3.7-49.1,36.6-40.5"/>
			<path class="st4" d="M667.1,492.1c0,0,3.4-7.1,9.4-6.2c5.9,0.9,13.8,8,7.8,13.9C678.4,505.7,664.6,502.2,667.1,492.1z"/>
			<path class="st5" d="M652.1,520.8c0,0-2.5-33.6,25-27.7"/>
			<path class="st5" d="M674.3,448c0,0-31.1,36-29.2,75.9c0,0-8.4-43.7,1.7-67"/>
			<path class="st5" d="M615.9,442.1c0,0,24.2,23.7,20.5,77.3c0,0-3.7-41.3-26.6-57.5"/>
			<path class="st5" d="M589.7,486.9c0,0,25.3-11.3,48.4,36.8"/>
			<g>
				<path class="st2" d="M612.5,510.5h61.6c0,0,6.2,51.6-23.1,54.1S608.6,547.5,612.5,510.5z"/>
				<path class="st6" d="M617.8,549.9c6.2,10.8,17.3,15.9,33.2,14.6c17-1.4,22.1-19.5,23.3-34.3
					C656.2,538.1,637.3,544.7,617.8,549.9z"/>
			</g>
		</g>
		<g>
			<rect x="343.4" y="569.1" class="st7" width="505.5" height="18.5"/>
			<rect x="331.8" y="562" class="st8" width="505.5" height="18.5"/>
		</g>
	</g>
	<g>
		<g>
			<rect x="1050.8" y="200" class="st0" width="443.1" height="362"/>
			<g class="st1">
				<polygon class="st2" points="1493.9,226.1 1163.8,562 1304.6,562 1493.9,369.4 				"/>
				<polygon class="st2" points="1297.4,200 1050.8,450.9 1050.8,536 1381,200 				"/>
			</g>
		</g>
		<g>
			<g>
				<path class="st3" d="M1134.1,519c0,0,1.7-70.6-20.3-91.5c-22.1-20.9,8.3-18.5,19,7.6c10.7,26.1,5.3,92.3,5.3,92.3L1134.1,519z"
					/>
				<g>
					<path class="st4" d="M1131.7,524.8c0,0-9.5-50.9-34.7-63.6c-25.2-12.7,5.2-14.1,20,3.5s20,65.7,20,65.7L1131.7,524.8z"/>
					<path class="st3" d="M1144.2,522.7c0,0,10-60.2,27.8-74.7c17.8-14.5-2.5-16.9-13.6,3.7c-11.1,20.6-18,77.6-18,77.6
						L1144.2,522.7z"/>
					<path class="st4" d="M1148.5,531.4c0,0,11.6-58.1,33.8-71.9c22.3-13.8-3.5-16.4-17.2,3.4c-13.7,19.8-21.4,74.8-21.4,74.8
						L1148.5,531.4z"/>
					<path class="st4" d="M1141.1,518.2c0,0-13.7-98.8-1.4-100.1c12.3-1.3,4.4,104.6,4.4,104.6L1141.1,518.2z"/>
				</g>
			</g>
			<g>
				<path class="st2" d="M1112.6,510.5h61.6c0,0,6.2,51.6-23.1,54.1C1121.9,567,1108.8,547.5,1112.6,510.5z"/>
				<path class="st6" d="M1117.9,549.9c6.2,10.8,17.3,15.9,33.2,14.6c17-1.4,22.1-19.5,23.3-34.3
					C1156.4,538.1,1137.5,544.7,1117.9,549.9z"/>
			</g>
		</g>
		<g>
			<rect x="1041.5" y="569.1" class="st7" width="505.5" height="18.5"/>
			<rect x="1029.9" y="562" class="st8" width="505.5" height="18.5"/>
		</g>
	</g>
</g>
<g>
	<ellipse class="st9" cx="1213.4" cy="918.2" rx="77.5" ry="18.2"/>
	<g>
		<path class="st10" d="M1223.8,901.6c0,2.4-2,4.4-4.5,4.4l0,0c-2.5,0-4.5-1.9-4.5-4.4V686.7c0-2.4,2-4.4,4.5-4.4l0,0
			c2.5,0,4.5,1.9,4.5,4.4V901.6z"/>
		<path class="st11" d="M1214.7,835.8v23.7c3-0.8,6-1.5,9.1-2.2v-20.9C1220.8,836.2,1217.8,836,1214.7,835.8z"/>
		<path class="st11" d="M1223.8,707.5v-20.8c0-2.4-2-4.4-4.5-4.4c-2.5,0-4.5,1.9-4.5,4.4v19.8
			C1217.8,706.8,1220.8,707.1,1223.8,707.5z"/>
		<rect x="1165.8" y="677.5" class="st12" width="106.9" height="11.6"/>
		<path class="st8" d="M1284.3,675.1c0,4-3.4,7.3-7.6,7.3h-115c-4.2,0-7.6-3.2-7.6-7.3l0,0c0-4,3.4-7.3,7.6-7.3h115
			C1280.9,667.8,1284.3,671.1,1284.3,675.1L1284.3,675.1z"/>
		<path class="st12" d="M1276,834.7c0,2.4-2,4.4-4.5,4.4h-104.4c-2.5,0-4.5-1.9-4.5-4.4l0,0c0-2.4,2-4.4,4.5-4.4h104.4
			C1274,830.3,1276,832.3,1276,834.7L1276,834.7z"/>
		<path class="st12" d="M1171.2,914.6c0,4.8,21.5,8.7,48,8.7c26.5,0,48-3.9,48-8.7s-21.5-17.4-48-17.4
			C1192.7,897.2,1171.2,909.8,1171.2,914.6z"/>
		<path class="st10" d="M1219.3,918.5c-22.5,0-41.3-2.8-46.5-6.6c-1,1-1.5,2-1.5,2.7c0,4.8,21.5,8.7,48,8.7c26.5,0,48-3.9,48-8.7
			c0-0.7-0.6-1.7-1.5-2.7C1260.5,915.7,1241.7,918.5,1219.3,918.5z"/>
	</g>
</g>
<g>
	<g>
		<line class="st13" x1="568.8" y1="291.1" x2="568.8" y2="128"/>
		<ellipse class="st12" cx="568.8" cy="272.8" rx="21.4" ry="18.3"/>
		<path class="st12" d="M468.2,311c0,11.3,44.1,20.4,98.5,20.4c54.4,0,98.5-9.1,98.5-20.4c0-11.3-44.1-40.7-98.5-40.7
			C512.3,270.3,468.2,299.8,468.2,311z"/>
		<path class="st14" d="M566.7,320.1c-46.1,0-84.6-6.5-95.4-15.4c-2,2.4-3.1,4.6-3.1,6.3c0,11.3,44.1,20.4,98.5,20.4
			c54.4,0,98.5-9.1,98.5-20.4c0-1.7-1.2-3.9-3.1-6.3C651.3,313.6,612.7,320.1,566.7,320.1z"/>
	</g>
	<g>
		<line class="st13" x1="1317.1" y1="291.1" x2="1317.1" y2="128"/>
		<ellipse class="st12" cx="1317.1" cy="272.8" rx="21.4" ry="18.3"/>
		<path class="st12" d="M1216.5,311c0,11.3,44.1,20.4,98.5,20.4c54.4,0,98.5-9.1,98.5-20.4c0-11.3-44.1-40.7-98.5-40.7
			C1260.6,270.3,1216.5,299.8,1216.5,311z"/>
		<path class="st14" d="M1315,320.1c-46.1,0-84.6-6.5-95.4-15.4c-2,2.4-3.1,4.6-3.1,6.3c0,11.3,44.1,20.4,98.5,20.4
			c54.4,0,98.5-9.1,98.5-20.4c0-1.7-1.2-3.9-3.1-6.3C1399.6,313.6,1361.1,320.1,1315,320.1z"/>
	</g>
</g>
<g>
	<g>
		<ellipse class="st9" cx="1438.2" cy="915.6" rx="77.5" ry="18.2"/>
		<g>
			<path class="st10" d="M1447.6,899c0,2.4-2,4.4-4.5,4.4l0,0c-2.5,0-4.5-1.9-4.5-4.4V684.1c0-2.4,2-4.4,4.5-4.4l0,0
				c2.5,0,4.5,1.9,4.5,4.4V899z"/>
			<path class="st11" d="M1438.5,833.2v23.7c3-0.8,6-1.5,9.1-2.2v-20.9C1444.6,833.6,1441.6,833.4,1438.5,833.2z"/>
			<path class="st11" d="M1447.6,704.8v-20.8c0-2.4-2-4.4-4.5-4.4c-2.5,0-4.5,1.9-4.5,4.4v19.8
				C1441.6,704.2,1444.6,704.5,1447.6,704.8z"/>
			<rect x="1401.8" y="674.9" class="st12" width="106.9" height="11.6"/>
			<path class="st8" d="M1520.3,672.5c0,4-3.4,7.3-7.6,7.3h-115c-4.2,0-7.6-3.2-7.6-7.3l0,0c0-4,3.4-7.3,7.6-7.3h115
				C1516.9,665.2,1520.3,668.5,1520.3,672.5L1520.3,672.5z"/>
			<path class="st12" d="M1496.7,832.1c0,2.4-2,4.4-4.5,4.4h-104.4c-2.5,0-4.5-1.9-4.5-4.4l0,0c0-2.4,2-4.4,4.5-4.4h104.4
				C1494.6,827.7,1496.7,829.7,1496.7,832.1L1496.7,832.1z"/>
			<path class="st12" d="M1395,912c0,4.8,21.5,8.7,48,8.7c26.5,0,48-3.9,48-8.7c0-4.8-21.5-17.4-48-17.4
				C1416.6,894.6,1395,907.2,1395,912z"/>
			<path class="st10" d="M1443.1,915.9c-22.5,0-41.3-2.8-46.5-6.6c-1,1-1.5,2-1.5,2.7c0,4.8,21.5,8.7,48,8.7c26.5,0,48-3.9,48-8.7
				c0-0.7-0.6-1.7-1.5-2.7C1484.3,913.1,1465.5,915.9,1443.1,915.9z"/>
		</g>
	</g>
	<g>
		<g>
			<g>
				<path class="st15" d="M1487.4,599.8c0,0,11.8,30.1,2.6,53.8s-145.2,31.1-145.2,31.1s19.7,22.2,23.9,44.3
					c3.4,17.9,21.7,89.8,21.7,89.8l-19.3,5.9c0,0-73.9-142.5-67.1-158.3c11.6-27,110.7-80.9,110.7-80.9L1487.4,599.8z"/>
				<path class="st16" d="M1346.4,786.2l40.8-13.4l7.4,58.5l-48.1,10.7c0,0,7-8.5,18-17.5L1346.4,786.2z"/>
				<path class="st17" d="M1346.4,786.2l40.8-13.4l7.4,58.5l-48.1,10.7c0,0,7-8.5,18-17.5L1346.4,786.2z"/>
			</g>
			<g>
				<path class="st18" d="M1504.9,593.9c0,0,14.3,29.1,7.2,53.4c-7.2,24.3-142.1,42.3-142.1,42.3s21.5,20.6,27.5,42.3
					c4.9,17.6,29.2,87.8,29.2,87.8l-18.7,7.4c0,0-98.6-139.6-92-155.5c6.6-15.9,104.6-69.3,104.6-69.3L1504.9,593.9z"/>
				<path class="st16" d="M1379.9,794.8l38-19.6l17.1,56.6l-45.7,18c0,0,5.5-9.5,14.9-20.1L1379.9,794.8z"/>
			</g>
		</g>
		<g>
			<path class="st16" d="M1293.4,577l56.1-0.4c0,0-0.9,7.3-8.8,9.7c-7.8,2.4-37.2,0.1-37.2,0.1S1294.1,583.4,1293.4,577z"/>
			<path class="st19" d="M1295.3,581.2c2.9,3.5,8.2,5.2,8.2,5.2s29.4,2.3,37.2-0.1c3.5-1.1,5.6-3.2,6.9-5.1H1295.3z"/>
		</g>
		<g>
			<g>
				<path class="st20" d="M1458.9,369.9c0,0-21-22.8-47.8-5c-46.3,30.7-21.3,115.9,0.2,114.3c21.5-1.6,21.3,2.8,27.5-16.4
					C1443,428.7,1458.9,369.9,1458.9,369.9z"/>
				<path class="st21" d="M1461,461.1l0.1-41l-29.3,16.2l1.6,27.8l-23.6,9.2c0,0-9.8,32.2,30.3,29c40.1-3.2,46.4-37.4,46.4-37.4
					L1461,461.1z"/>
				<path class="st22" d="M1460.9,449.4l0.1-29.3l-29.3,16.2l1.2,24.2C1442.7,458.6,1451,455.7,1460.9,449.4z"/>
				<path class="st21" d="M1400.7,403.3c2-34.4,36.3-34.3,52.7-25.1c0.1,18.6,6.5,28.6,12.5,45.7
					C1439,470.7,1397.6,457.5,1400.7,403.3z"/>
				<path class="st20" d="M1440.6,367.6c0,0,2.7,9.2-10.1,18.6c-12.8,9.4-33.6,2.6-33.6,2.6S1410.2,363.4,1440.6,367.6z"/>
				<path class="st18" d="M1483,387c-3.6-21-33.5-38.9-44.3-17.5c-9.4,18.4,11.6,30.9,16.7,33.9c0.8,4,4.9,14.8,4.3,21.1
					c-0.3,3.1,0.1,5.2,1,6.4C1460.9,434.9,1487.9,415.4,1483,387z"/>
				<path class="st18" d="M1455.9,400.6c0,0-12.9,50.8,3.3,61.6c12.8,8.5,23.1-3.2,36.3,5.8c0,0,4.1-11.9,3.6-23.5
					c-0.6-11.6-13.2-24.9-15.7-53.9c-2.5-29.1-26.4-9.8-28.4,10.3"/>
			</g>
			<g>
				<g>
					<path class="st23" d="M1426.2,403.3c1.1-1.3,2.5-2.4,4-3.2c1.5-0.8,3.3-1.3,5.1-1.4c0.5,0,0.9,0,1.4,0c0.4,0.1,0.9,0.2,1.3,0.2
						c0.4,0.1,0.9,0.3,1.3,0.5c0.2,0.1,0.4,0.1,0.6,0.3l0.6,0.4c1.6,0.9,2.6,2.4,3.5,3.8c-0.7-0.5-1.3-1.1-2-1.5
						c-0.7-0.4-1.3-0.9-2.1-1.2c-1.4-0.6-3-1-4.5-0.9c-1.6,0-3.1,0.4-4.6,1C1429.2,401.7,1427.7,402.5,1426.2,403.3z"/>
				</g>
				<g>
					<path class="st23" d="M1400.9,406.1c0.8-1.3,1.9-2.4,3.2-3.3c1.3-0.9,2.8-1.6,4.5-1.7c0.4,0,0.8,0,1.3,0
						c0.4,0.1,0.8,0.1,1.2,0.2c0.8,0.3,1.6,0.5,2.2,1.1c0.7,0.4,1.2,1.1,1.7,1.6c0.5,0.6,0.8,1.3,1.2,2c-0.6-0.5-1.2-1-1.7-1.4
						c-0.6-0.4-1.2-0.9-1.8-1.1c-1.2-0.6-2.6-0.9-3.9-0.7c-1.3,0.1-2.7,0.6-4,1.2C1403.4,404.5,1402.2,405.3,1400.9,406.1z"/>
				</g>
				<g>
					<path class="st24" d="M1419.3,414.4c-0.2,0.9-0.4,1.7-0.7,2.6c-0.3,0.9-0.5,1.7-0.8,2.6c-0.6,1.7-1.1,3.4-1.8,5l-0.1-0.4
						c1,0.8,1.9,1.6,2.8,2.3c0.9,0.8,1.8,1.6,2.7,2.4c-1-0.7-2-1.4-3-2.1c-1-0.7-2-1.4-3-2.1l-0.2-0.2l0.1-0.3
						c0.5-1.7,1.1-3.4,1.8-5c0.3-0.8,0.7-1.6,1-2.5C1418.5,416,1418.9,415.2,1419.3,414.4z"/>
				</g>
				<g>
					<path class="st23" d="M1415.8,411.9c-0.1,1.5-0.8,3-1.9,4.1c-1.1,1.1-2.5,2-4.1,2.3c-0.8,0.1-1.6,0.1-2.5-0.1
						c-0.8-0.2-1.6-0.8-2-1.6c-0.4-0.7-0.6-1.6-0.5-2.3c0-0.8,0.2-1.5,0.5-2.2c0,1.5,0,3,0.8,4.1c0.8,1,2.2,1.3,3.5,1
						c1.3-0.2,2.6-0.9,3.7-1.8C1414.3,414.5,1415.2,413.3,1415.8,411.9z"/>
				</g>
				<g>
					<path class="st23" d="M1439.3,411.9c-0.1,1.5-0.8,3-1.9,4.1c-1.1,1.1-2.5,2-4.1,2.3c-0.8,0.1-1.6,0.1-2.5-0.1
						c-0.8-0.2-1.6-0.8-2-1.6c-0.4-0.7-0.6-1.6-0.5-2.3c0-0.8,0.2-1.5,0.5-2.2c0,1.5,0,3,0.8,4.1c0.8,1,2.2,1.3,3.5,1
						c1.3-0.2,2.6-0.9,3.7-1.8C1437.9,414.5,1438.7,413.3,1439.3,411.9z"/>
				</g>
				<g>
					<path class="st24" d="M1419.8,431.1c-0.2,0.7-0.5,1.4-0.8,2c-0.3,0.7-0.6,1.3-1,2l-0.3-0.6c1.2,0.1,2.4,0.1,3.6,0
						c1.2-0.1,2.4-0.2,3.6-0.4c1.2-0.2,2.4-0.5,3.6-0.8c1.2-0.3,2.3-0.8,3.5-1.3c-1.1,0.7-2.2,1.3-3.3,1.7c-1.2,0.5-2.4,0.8-3.6,1.1
						c-2.5,0.5-5,0.8-7.5,0.6l-0.6,0l0.3-0.5c0.4-0.6,0.7-1.3,1.2-1.9C1418.9,432.3,1419.4,431.7,1419.8,431.1z"/>
				</g>
			</g>
		</g>
		<g>
			<g>
				<g>
					<path class="st21" d="M1362.8,457c0,0-14.9,3.7-19.3,9.5c-4.4,5.8-4.9,104,13.8,105.2c16,1.1,46.8-35.4,52.9-52.9l-22.6-16.4
						l-18.7,25.4l-9.4-52.3c0,0,6.5-2,6.5-3.6C1366,470.2,1362.8,457,1362.8,457z"/>
					<path class="st22" d="M1402,534c3.8-5.6,6.7-11,8.2-15.2l-22.6-16.4l-9.1,12.3C1385.9,521.7,1393.7,528.2,1402,534z"/>
					<g>
						<path class="st25" d="M1490.8,529.5c-0.3-0.8-0.5-1.5-0.8-2.2c0,0,12.7-49.7,10.5-55c-2.2-5.3-16.5-8.5-16.5-8.5
							s0,31.7-41.9,36c-19.4,2-31.9-18-30.1-27.7c-6.8,2.8-15.3,7.7-20.6,15.6c-9.9,14.8-14.3,20.1-14.3,20.1s7.7,12.7,23.1,17.4
							c0,0-3.9,16.4,14.3,23.3c0,0-4.4,21.7-11,41.8c0,0,35.2,29.6,105.7,10C1509.3,600.3,1499.5,554.9,1490.8,529.5z"/>
					</g>
					<g class="st26">
						<path class="st27" d="M1490.8,529.5c-0.3-0.8-0.5-1.5-0.8-2.2c0,0,1.4-5.7,3.3-13.4c-12.6,15.5-28.5,28.2-47.8,36.1
							c-10.7,4.4-21.9,7.1-33.3,8.7c-1.9,8.2-5,20.1-8.7,31.5c0,0,35.2,29.6,105.7,10C1509.3,600.3,1499.5,554.9,1490.8,529.5z"/>
						<path class="st27" d="M1400.3,525.2c0,0,0,0.1,0,0.1c5.5-10.3,0.7-25.8,0.7-25.8c-3,5.6-8.6,12.7-13.7,18.8
							C1390.7,521,1395,523.5,1400.3,525.2z"/>
					</g>
				</g>
				<g>
					<path class="st16" d="M1374.6,477.5c0.5,2.5,7.1,3.3,14.8,1.9c7.7-1.4,13.5-4.6,13-7c-0.5-2.5-7.1-3.3-14.8-1.9
						C1379.9,471.9,1374.1,475,1374.6,477.5z"/>
					<polygon class="st16" points="1366.6,449.9 1374.6,477.5 1402.4,472.3 1399,443.9 					"/>
					<g>
						<path class="st28" d="M1375,451.8c-5.2,0-7.8-1-8-2c-0.1-0.3,0-0.5,0.3-0.9c1.5-2.2,8.1-4.9,14.7-6.2c2.8-0.5,5.9-0.8,8.6-0.8
							c5.2,0,7.8,1,8,2c0.1,0.3,0,0.5-0.3,0.9c-1.5,2.2-8.1,4.9-14.7,6.2C1380.8,451.5,1377.8,451.8,1375,451.8
							C1375,451.8,1375,451.8,1375,451.8z"/>
						<path class="st16" d="M1390.6,442.3c5.3,0,7.5,1,7.6,1.7c0,0.2-0.1,0.4-0.2,0.6c-1.4,2.1-8,4.8-14.5,6
							c-2.8,0.5-5.8,0.8-8.6,0.8c-5.3,0-7.5-1-7.6-1.7c0-0.2,0.1-0.4,0.2-0.6c1.4-2.1,8-4.8,14.5-6
							C1384.8,442.6,1387.9,442.3,1390.6,442.3 M1390.6,441.6c-2.7,0-5.8,0.3-8.7,0.8c-7.7,1.4-15.8,5-15.3,7.5
							c0.3,1.5,3.9,2.3,8.4,2.3c2.7,0,5.8-0.3,8.7-0.8c7.7-1.4,15.8-5,15.3-7.5C1398.7,442.3,1395.1,441.6,1390.6,441.6
							L1390.6,441.6z"/>
					</g>
				</g>
				<path class="st29" d="M1362.2,466.4c0.9,4.7,6.1,7.7,11.5,6.7c5.4-1,9-5.6,8-10.3c-0.9-4.7-6.1-7.7-11.5-6.7
					C1364.8,457,1361.2,461.7,1362.2,466.4z"/>
				<path class="st21" d="M1349.1,461.9c0,0,17.8-9.5,15.7-1.8c0,0,4.3,0.8,2.1,4c0,0,3.3,1,1.7,3.4c0,0,5,3.8-3.9,6.7
					c-8.9,3-9.9,2.8-9.9,2.8L1349.1,461.9z"/>
			</g>
			<g>
				<path class="st21" d="M1495.6,468.1c0,0,17.9,4.4,14.6,26.2c-2.4,15.7-12,71-16.9,78.9c-5,7.9-74.4,46.6-78.3,48.5
					c-4.3,2.1-23.4,13-5.9-1.5c0,0-24,12.8-4.5-1.9c0,0-20.9,9,1-4.9c0,0-22.2,9.1-1.5-3.2l6.3-3.8c0,0-24-5.2,4.1-4
					c0,0,33.5-27,51.6-44.4C1471.6,552.7,1471.2,478.8,1495.6,468.1z"/>
				<path class="st22" d="M1502.8,535.8c3.3-16.5,6.2-33.8,7.3-41.5c3.3-21.8-14.6-26.2-14.6-26.2c-15.3,6.7-20.8,38.3-24.2,62.2
					C1481.7,532.9,1492.2,534.6,1502.8,535.8z"/>
				<path class="st25" d="M1468.3,524.9c-0.1,0.8,28.1,3.4,42.4-0.5c0,0,16.8-49.2-18.4-58.2
					C1492.3,466.2,1471.6,486.6,1468.3,524.9z"/>
			</g>
		</g>
	</g>
</g>
<g>
	<g>
		<g>
			<path class="st30" d="M959.4,430.3c0,0-9.1,36.3,6.5,61.6c0,0-1.9-15.2,1.2-28.9C970.1,449.3,959.4,430.3,959.4,430.3z"/>
			<path class="st30" d="M1023.2,403.8c0,0-10.2-27.5,13.3-22.4c30,6.4,5.6,19.2,13.7,22.4c10,3.9,12.2-6.8,12.2-6.8
				s3.7,9.6-5.9,12.1c0,0,7.4-0.7,9.3-6.4c0,0,2.6,12.5-8.2,15.7c0,0,3,0.4,7.8-4.3c0,0-7,16.4-24.8,5.3
				C1027,411,1023.2,403.8,1023.2,403.8z"/>
			<path class="st25" d="M1010.3,405.3c0,5.9,5.1,10.7,11.5,10.7c6.3,0,11.5-4.8,11.5-10.7c0-5.9-5.1-10.7-11.5-10.7
				C1015.4,394.6,1010.3,399.4,1010.3,405.3z"/>
			<g>
				<path class="st31" d="M1022.3,498.4l1.2-38.9l-30.8,16.1l0.9,25.3l-24.7,9c0,0-10.9,33.2,30.7,30.8
					c41.7-2.4,49.1-37.7,49.1-37.7L1022.3,498.4z"/>
				<path class="st22" d="M1022.6,487l0.9-30.4l-30.8,16.1l0.6,25.1C1003.5,496.1,1012.2,493.4,1022.6,487z"/>
			</g>
			<path class="st31" d="M961.3,442.1c2.9-35.7,38.5-34.7,55.3-24.7c-0.4,19.3,6,29.8,11.8,47.7
				C999.3,512.9,956.7,498.3,961.3,442.1z"/>
			<path class="st32" d="M1011,401.3c0,0-4.9,14.3-18.4,23.7c-13.5,9.4-34.9,2-34.9,2S963.8,383,1011,401.3z"/>
			<path class="st30" d="M1047.1,427.2c-3.2-21.9-33.7-41.2-45.5-19.2c-10.2,18.9,11.2,32.3,16.5,35.6c0.8,4.1,4.7,15.5,3.9,21.9
				c-0.4,3.2,0,5.4,0.9,6.7C1022.9,476.3,1051.4,456.7,1047.1,427.2z"/>
			<path class="st31" d="M1025.5,443.7c0,0,7.5-2.2,7.3,7.3c-0.2,9.5-7.8,9.5-7.8,9.5L1025.5,443.7z"/>
			<path class="st30" d="M1004,413.8c0,0-8.6,24-29.3,24.9l3.4-4.1c0,0-9.1,2.8-25.9,0c0,0,1.4-41,34.1-40.1
				c29.3,0.8,31.7,12.9,31.7,12.9L1004,413.8z"/>
			<path class="st30" d="M1019.2,436.3c0,0-6.8,36.5,9.8,49.3c0,0-5.6-27.8-3-43.5C1028.5,426.4,1019.2,436.3,1019.2,436.3z"/>
		</g>
		<g>
			<g>
				<path class="st30" d="M987.8,442.7c1.2-1.4,2.6-2.4,4.2-3.2c1.6-0.8,3.4-1.3,5.3-1.4c0.5,0,0.9,0,1.4,0.1
					c0.5,0.1,0.9,0.2,1.4,0.3c0.5,0.1,0.9,0.3,1.3,0.5c0.2,0.1,0.4,0.2,0.6,0.3l0.6,0.4c0.4,0.3,0.8,0.5,1.1,0.8l0.9,1
					c0.3,0.3,0.5,0.7,0.8,1.1c0.2,0.4,0.5,0.8,0.7,1.1c-0.4-0.3-0.7-0.6-1-0.8c-0.3-0.3-0.6-0.6-1-0.8l-1-0.7
					c-0.3-0.3-0.7-0.4-1.1-0.6c-1.5-0.7-3-1.1-4.7-1c-1.6,0-3.2,0.4-4.8,0.9C990.9,441.2,989.3,441.9,987.8,442.7z"/>
			</g>
			<g>
				<path class="st30" d="M961.4,445.1c0.9-1.3,2.1-2.5,3.4-3.4c1.4-0.9,3-1.5,4.7-1.7c0.4,0,0.9,0,1.3,0c0.4,0.1,0.9,0.1,1.3,0.2
					c0.8,0.3,1.6,0.6,2.3,1.2c0.7,0.4,1.2,1.1,1.8,1.7c0.5,0.7,0.8,1.4,1.2,2.1c-0.6-0.5-1.2-1.1-1.8-1.5c-0.6-0.4-1.2-0.9-1.9-1.2
					c-1.3-0.7-2.7-1-4.1-0.9c-1.4,0.1-2.8,0.6-4.2,1.2C964.1,443.4,962.7,444.2,961.4,445.1z"/>
			</g>
			<g>
				<path class="st24" d="M980.2,448.6c-0.4,2.7-1,5.3-1.6,8c-0.6,2.6-1.2,5.3-1.9,7.9l-0.1-0.4c1.9,1.6,3.8,3.3,5.6,5.1
					c-2.1-1.4-4.1-2.9-6.1-4.5l-0.2-0.1l0.1-0.2c0.6-2.6,1.2-5.3,1.9-7.9C978.6,453.8,979.3,451.2,980.2,448.6z"/>
			</g>
			<g>
				<path class="st23" d="M976.8,451.5c-0.2,1.6-0.9,3.1-2.1,4.2c-1.1,1.2-2.6,2-4.3,2.3c-0.8,0.1-1.7,0.1-2.5-0.2
					c-0.8-0.3-1.6-0.9-2-1.7c-0.4-0.8-0.5-1.6-0.5-2.4c0.1-0.8,0.3-1.6,0.6-2.3c-0.1,1.5-0.1,3.1,0.7,4.2c0.8,1.1,2.2,1.4,3.6,1.1
					c1.4-0.2,2.7-0.9,3.9-1.8C975.2,454,976.1,452.9,976.8,451.5z"/>
			</g>
			<g>
				<path class="st23" d="M1001.2,452c-0.2,1.6-0.9,3.1-2.1,4.2c-1.1,1.2-2.6,2-4.3,2.3c-0.8,0.1-1.7,0.1-2.5-0.2
					c-0.8-0.3-1.6-0.9-2-1.7c-0.4-0.8-0.5-1.6-0.5-2.4c0.1-0.8,0.3-1.6,0.6-2.3c-0.1,1.5-0.1,3.1,0.7,4.2c0.8,1.1,2.2,1.4,3.6,1.1
					c1.4-0.2,2.7-0.9,3.9-1.8C999.6,454.6,1000.5,453.4,1001.2,452z"/>
			</g>
			<g>
				<path class="st33" d="M974.8,475c0,0,4,8.3,13,6.7c9-1.6,11.1-10.5,11.1-10.5L974.8,475z"/>
				<path class="st34" d="M996.2,474.4c0.5,0,0.9,0,1.4,0.1c1-1.8,1.3-3.2,1.3-3.2l-24.1,3.8c0,0,2.4,5,7.7,6.5
					C985.1,477.4,989.7,474.4,996.2,474.4z"/>
			</g>
		</g>
	</g>
	<g>
		<ellipse class="st9" cx="999" cy="919.8" rx="89.6" ry="13.4"/>
		<g>
			<g>
				<path class="st31" d="M1039,885.9c4,7.8,7.3,13.9,9.6,17.5c-5.2,5.2-19.6,19.6-19.6,22.5c0,3.5,33.8-10.3,37-16.8
					c1.1-2.2-1.4-13.5-5.1-27.5C1054,884.1,1046.6,885.6,1039,885.9z"/>
				<g>
					<path class="st18" d="M1065.9,904.5l2.1,4.6c0,0-38.3,27.9-41.6,22.2c-3.2-5.7,17.4-23.3,17.4-23.3S1036.8,921.5,1065.9,904.5z
						"/>
					<g>
						<path class="st2" d="M1067.2,907.3l0.8,1.8c0,0-38.3,27.9-41.6,22.2c-0.3-0.6-0.4-1.3-0.3-2.1
							C1029.4,934.3,1062.7,910.5,1067.2,907.3z"/>
					</g>
				</g>
			</g>
			<g>
				<path class="st31" d="M979.7,888.4c-7.4,0-14.7-1.1-21.5-3.2c0.5,8.8,1,15.8,1.4,20.6c-7.1,2.3-26.8,8.9-28.2,11.5
					c-1.7,3.2,35.1,5.5,40.9,1.1c2.1-1.6,5.7-14.4,9.4-30C981.1,888.4,980.4,888.4,979.7,888.4z"/>
				<g>
					<path class="st18" d="M974.5,914.3l-0.3,5c0,0-47.5,8.2-47.6,1.7c-0.2-6.5,26.6-13.2,26.6-13.2S940.4,916.7,974.5,914.3z"/>
					<g>
						<path class="st2" d="M974.3,917.3l-0.1,2c0,0-47.5,8.2-47.6,1.7c0-0.7,0.3-1.3,0.8-2C927.8,924.9,968.8,918.2,974.3,917.3z"/>
					</g>
				</g>
			</g>
			<g>
				<path class="st35" d="M1051.7,616.9c0,0,26.1,30.5,21.4,77.3c-4.7,46.8-23.3,71.9-26.8,97.4c0,0,23.5,98.4,19.3,101.5
					c-7.2,5.4-16.1,7.5-21.7,6.3c-2.3-0.5-48.5-116.3-49.3-123.4c-0.3-2.9-12.3,125-15.6,126.5c-7,3.1-13.5,3.4-21.9-1.3
					c0,0-17.7-169.7-15.3-208.7c2.4-39,29.3-82.8,29.3-82.8L1051.7,616.9z"/>
				<path class="st36" d="M1000.9,769.5V664.3c35-2.2,56.5-8.9,68-13.7c-6.5-21.2-17.1-33.7-17.1-33.7l-80.7-7.2
					c0,0-26.9,43.8-29.3,82.8c-2.4,39,15.3,208.7,15.3,208.7c8.4,4.7,14.9,4.5,21.9,1.3c3.3-1.5,15.3-129.4,15.6-126.5
					c0.2,1.9,5.4,0.3,12.9-3.8L1000.9,769.5z"/>
			</g>
		</g>
	</g>
	<g>
		<g>
			<g>
				<path class="st31" d="M939.1,628.2c16.1-3.9,34.2-49.5,34.3-68.5l-27.8-9.2l-9.9,30.8C935.7,581.3,920.3,632.7,939.1,628.2z"/>
				<path class="st22" d="M970.5,577.1c1.8-6.7,2.9-12.9,3-17.5l-27.8-9.2l-4.8,14.9C950.5,570,960.4,573.9,970.5,577.1z"/>
			</g>
			<g>
				<path class="st35" d="M916.2,574.4l-6.6,46c-0.1,0.7,0.4,1.4,1.2,1.5l2.1,0.3c0.8,0.1,1.5-0.4,1.6-1.1l6.6-46L916.2,574.4z"/>
				<g>
					<path class="st18" d="M920.4,580.1l3-20.9c0.1-0.8-0.4-1.5-1.2-1.6l-2.2-0.3c-0.8-0.1-1.5,0.4-1.6,1.2l-3,20.9L920.4,580.1z"/>
					<path class="st18" d="M921.9,586.4c-0.1,0.5-0.6,0.9-1.1,0.8l0,0c-0.5-0.1-0.9-0.5-0.8-1l3.5-24.3c0.1-0.5,0.6-0.9,1.1-0.8l0,0
						c0.5,0.1,0.9,0.5,0.8,1L921.9,586.4z"/>
					<polygon class="st18" points="921.5,579.5 919.5,579.2 922,562.4 923.9,562.7 					"/>
				</g>
			</g>
		</g>
		<g>
			<g>
				<path class="st3" d="M1051.5,570c-0.2-0.8-0.5-1.6-0.7-2.3c0,0,12.2-50.9,12.3-56.8c0.1-7-33.6-12.1-33.6-12.1s5,23-30.5,24.6
					c-13.9,0.6-21.6-8-19.4-18.1c-7.2,2.8-19.9,7.3-25.5,15.3c-10.7,15.1-18.7,32.1-18.7,32.1s6.5,5.3,22.4,10.6
					c0,0-4.4,16.9,14.3,24.5c0,0-5.1,22.4-12.5,43.1c0,0,35.8,31.6,109.4,12.9C1068.9,643.8,1059.8,596.6,1051.5,570z"/>
			</g>
			<g class="st26">
				<path class="st27" d="M1051.5,570c-0.2-0.8-0.5-1.6-0.7-2.3c0,0,1.6-5.9,3.7-13.8c-13.4,15.8-30.3,28.6-50.5,36.3
					c-11.2,4.3-22.9,6.8-34.7,8.2c-2.2,8.4-5.7,20.7-9.9,32.5c0,0,35.8,31.5,109.4,12.9C1068.9,643.8,1059.8,596.6,1051.5,570z"/>
			</g>
		</g>
		<g>
			<path class="st18" d="M1034.9,499.5c0,0-12,49.7-11.5,115.7c0.5,66,3.8,163.9,3.8,163.9s-53.7,4.4-102.3-7.2
				c0,0,29.4-233,46.6-264.4l4.9-1.6l-7.2,36.3l50.4-1.7l7.8-42.3L1034.9,499.5z"/>
			<path class="st15" d="M972.7,720.3c20.2-12.5,37.5-28.9,51.5-47.6c1.1,54,2.9,106.4,2.9,106.4s-53.7,4.4-102.3-7.2
				c0,0,1.6-13,4.4-33.4C944.4,734.1,959.5,728.5,972.7,720.3z"/>
			<path class="st18" d="M1017.3,623.1c0,0,40.4-3.6,45.8-4.6l1,4.9c0,0-34.9,6.9-49.6,5.6C999.7,627.7,1017.3,623.1,1017.3,623.1z"
				/>
			<path class="st18" d="M1061.3,621.6c20.1-6.4,35.5-28.1,23-30.1C1071.8,589.4,1061.3,621.6,1061.3,621.6z M1064.9,617.7
				c0,0,6.7-20.6,14.7-19.3C1087.6,599.7,1077.7,613.6,1064.9,617.7z"/>
			<path class="st18" d="M1060.8,622.4c17.1,4.6,38.6-3.6,31-10.6C1084.1,604.8,1060.8,622.4,1060.8,622.4z M1065.2,621.3
				c0,0,14.9-11.2,19.8-6.8C1089.9,619,1076.2,624.3,1065.2,621.3z"/>
			<path class="st18" d="M1061.3,621.6c0,0,12,83.6,15.5,84.7c3.5,1,6.3-0.9,6.3-0.9s-16.2-56.4-18.3-85.5L1061.3,621.6z"/>
			<path class="st18" d="M1061.5,621.1c0,0,26.1,69.1,29.5,69.4c3.3,0.3,5.5-1.8,5.5-1.8s-25-45.2-32.2-69.6L1061.5,621.1z"/>
		</g>
		<g>
			<g>
				<polygon class="st37" points="977.7,645.4 932.8,600.3 901.4,608.2 948.2,655.5 				"/>
				<polygon class="st37" points="976.4,646.4 931.5,601.2 900,609.2 946.8,656.5 				"/>
				<polygon class="st38" points="976.4,646.4 931.5,601.2 900,609.2 946.8,656.5 				"/>
				<polygon class="st37" points="974.5,647.5 929.6,602.4 898.1,610.3 944.9,657.6 				"/>
				<polygon class="st39" points="974.5,647.5 929.6,602.4 898.1,610.3 944.9,657.6 				"/>
				<polygon class="st37" points="968.5,652.1 929.6,602.4 897.7,609.9 937.1,662.3 				"/>
				<polygon class="st14" points="968.5,652.1 929.6,602.4 897.7,609.9 937.1,662.3 				"/>
				<g>
					<path class="st40" d="M903.4,606.6c-0.1-0.5,0.1-1.3,1.1-2.1c1.1-0.8,2-0.8,2.6-0.6c1.4,0.4,2.2,1.8,2.4,2.3l-1.6,0.4
						c-0.3-0.4-0.7-1.1-1.3-1.2c-0.1,0-0.5-0.1-1.2,0.4c-0.5,0.4-0.5,0.6-0.5,0.7c0.1,0.6,1.2,1.4,1.9,1.8c0.4,0.2,0.5,0.7,0.3,1
						c-0.1,0.2-0.3,0.3-0.5,0.4c-0.2,0.1-0.4,0-0.6-0.1C905.9,609.5,903.6,608.3,903.4,606.6z"/>
					<path class="st40" d="M900.5,607.3c-0.1-0.5,0.1-1.3,1.1-2.1c1.1-0.8,2-0.8,2.6-0.6c1.4,0.4,2.2,1.8,2.4,2.3l-1.6,0.4
						c-0.3-0.4-0.7-1.1-1.3-1.2c-0.1,0-0.5-0.1-1.2,0.4c-0.5,0.4-0.5,0.6-0.5,0.7c0.1,0.6,1.2,1.4,1.9,1.8c0.4,0.2,0.5,0.7,0.3,1
						c-0.1,0.2-0.3,0.3-0.5,0.4c-0.2,0.1-0.4,0-0.6-0.1C903,610.2,900.6,609,900.5,607.3z"/>
					<path class="st40" d="M922.6,601.7c-0.1-0.5,0.1-1.3,1.1-2.1c1.1-0.8,2-0.8,2.6-0.6c1.4,0.4,2.2,1.8,2.4,2.3l-1.6,0.4
						c-0.3-0.4-0.7-1.1-1.3-1.2c-0.1,0-0.5-0.1-1.2,0.4c-0.5,0.4-0.5,0.6-0.5,0.7c0.1,0.6,1.2,1.4,1.9,1.8c0.4,0.2,0.5,0.7,0.3,1
						c-0.1,0.2-0.3,0.3-0.5,0.4c-0.2,0.1-0.4,0-0.6-0.1C925.1,604.6,922.8,603.4,922.6,601.7z"/>
					<path class="st40" d="M917.8,602.9c-0.1-0.5,0.1-1.3,1.1-2.1c1.1-0.8,2-0.8,2.6-0.6c1.4,0.4,2.2,1.8,2.4,2.3l-1.6,0.4
						c-0.3-0.4-0.7-1.1-1.3-1.2c-0.1,0-0.5-0.1-1.2,0.4c-0.5,0.4-0.5,0.6-0.5,0.7c0.1,0.6,1.2,1.4,1.9,1.8c0.4,0.2,0.5,0.7,0.3,1
						c-0.1,0.2-0.3,0.3-0.5,0.4c-0.2,0.1-0.4,0-0.6-0.1C920.3,605.8,918,604.6,917.8,602.9z"/>
					<path class="st40" d="M914.2,603.8c-0.1-0.5,0.1-1.3,1.1-2.1c1.1-0.8,2-0.8,2.6-0.6c1.4,0.4,2.2,1.8,2.4,2.3l-1.6,0.4
						c-0.3-0.4-0.7-1.1-1.3-1.2c-0.1,0-0.5-0.1-1.2,0.4c-0.5,0.4-0.5,0.6-0.5,0.7c0.1,0.6,1.2,1.4,1.9,1.8c0.4,0.2,0.5,0.7,0.3,1
						c-0.1,0.2-0.3,0.3-0.5,0.4c-0.2,0.1-0.4,0-0.6-0.1C916.7,606.8,914.3,605.5,914.2,603.8z"/>
					<path class="st40" d="M910.5,604.7c-0.1-0.5,0.1-1.3,1.1-2.1c1.1-0.8,2-0.8,2.6-0.6c1.4,0.4,2.2,1.8,2.4,2.3l-1.6,0.4
						c-0.3-0.4-0.7-1.1-1.3-1.2c-0.1,0-0.5-0.1-1.2,0.4c-0.5,0.4-0.5,0.6-0.5,0.7c0.1,0.6,1.2,1.4,1.9,1.8c0.4,0.2,0.5,0.7,0.3,1
						c-0.1,0.2-0.3,0.3-0.5,0.4c-0.2,0.1-0.4,0-0.6-0.1C913,607.6,910.6,606.4,910.5,604.7z"/>
					<path class="st40" d="M907.2,605.6c-0.1-0.5,0.1-1.3,1.1-2.1c1.1-0.8,2-0.8,2.6-0.6c1.4,0.4,2.2,1.8,2.4,2.3l-1.6,0.4
						c-0.3-0.4-0.7-1.1-1.3-1.2c-0.1,0-0.5-0.1-1.2,0.4c-0.5,0.4-0.5,0.6-0.5,0.7c0.1,0.6,1.2,1.4,1.9,1.8c0.4,0.2,0.5,0.7,0.3,1
						c-0.1,0.2-0.3,0.3-0.5,0.4c-0.2,0.1-0.4,0-0.6-0.1C909.7,608.5,907.4,607.3,907.2,605.6z"/>
				</g>
			</g>
			<g>
				<path class="st31" d="M1058,506.4c0,0,16.6,11.9,12.6,34.4c-2.9,16.2-12.4,66.4-17.8,74.5c-5.3,8.1-80.1,24.4-84.3,26.4
					c-4.5,2.1-24.6,12.9-6.1-1.6c0,0-25.2,12.7-4.7-2c0,0-21.9,8.8,1.1-5.1c0,0-23.2,8.9-1.5-3.3l6.7-3.8c0,0-24.7-5.9,4.4-4
					c0,0,38.1-15.8,56.5-22.7C1032.7,596.2,1032.5,516.9,1058,506.4z"/>
				<path class="st22" d="M1063.8,576.8c3.8-17.1,2.9-27.1,4.4-35.1c4-22.5-10.1-35.3-10.1-35.3c-16,6.6-22.6,39.2-26.7,63.9
					C1042,573.3,1052.9,575.3,1063.8,576.8z"/>
				<path class="st3" d="M1028.3,564.7c-0.1,0.8,24.8,5.6,39.8,1.8c0,0,15.6-56.9-16.4-62.3C1051.7,504.2,1032.7,525,1028.3,564.7z"
					/>
			</g>
		</g>
	</g>
</g>
<g>
	<g>
		<ellipse class="st9" cx="577.2" cy="922.3" rx="307.2" ry="21.7"/>
	</g>
	<g>
		<g>
			<polygon class="st41" points="792.1,767.8 805.6,908 795,908.5 781.9,769.7 			"/>
			<polygon class="st41" points="727,768.5 717.9,905.2 706.6,904.7 716.7,768.7 			"/>
			<polygon class="st10" points="842.4,787.5 855.9,917.4 845.3,917.9 832.2,789.3 			"/>
			<polygon class="st10" points="777.3,788.2 768.7,920.4 759,920.4 766.9,788.4 			"/>
			<path class="st41" d="M834.9,816.5l-2.8-27.2l10.2-1.8l2.7,26C841.7,814.6,838.3,815.6,834.9,816.5z"/>
			<path class="st41" d="M764.5,827.2l2.4-38.8l10.4-0.2l-2.5,38C771.4,826.5,768,826.9,764.5,827.2z"/>
			<path class="st8" d="M808,622.9c0,0,46.5,6.1,50.1,18.4c3.6,12.3,9.1,136.6,3.6,147.1c-5.5,10.5-104.5,16-112.6,13.8
				c-16.3-4.5-47.2-30.5-47.2-30.5L808,622.9z"/>
			<path class="st42" d="M794,619c0,0,45.3,6,48.9,18c3.6,12,8.9,133.6,3.6,143.8c-5.3,10.3-101.9,15.7-109.8,13.5
				c-15.9-4.4-46-29.9-46-29.9L794,619z"/>
		</g>
		<g>
			<g>
				<g>
					<g>
						<path class="st43" d="M663.6,804.9c0,0-31.1,111.9-43.2,104.9c-12.1-6.9,12.6-124.2,12.6-124.2L663.6,804.9z"/>
						<path class="st43" d="M642.8,870.4l-12.2,38.9c-11.2-1.4-65.9-7.9-13.7-16.4L642.8,870.4z"/>
						<path class="st44" d="M632,905.9l-2.3,5.8c0,0-50.3-0.7-47.8-8.4c2.5-7.7,31.7-9.7,31.7-9.7S597.3,901.3,632,905.9z"/>
						<g>
							<path class="st2" d="M631.4,909.6l-1,2.4c0,0-52.3-0.7-49.7-8.7c0.3-0.8,0.8-1.6,1.6-2.3
								C580.3,908.3,625.3,909.4,631.4,909.6z"/>
						</g>
					</g>
				</g>
				<path class="st40" d="M732.2,690.2l-4.9,17.6c0,0-68.9,10.4-88.3,27.2c-19.4,16.8-29.8,145.6-29.8,145.6s10.9,12,34.9,6
					l27.4-110l93.1-35.2l2.4-56.1L732.2,690.2z"/>
				<path class="st45" d="M732.2,690.2l-4.9,17.6c0,0-68.9,10.4-88.3,27.2c-19.4,16.8-29.8,145.6-29.8,145.6s10.9,12,34.9,6
					l27.4-110l93.1-35.2l2.4-56.1L732.2,690.2z"/>
				<path class="st46" d="M605,883.1c0,0,18.1,14.7,40.3,8l2.5-10.6c0,0-19.1,3-39.8-7.1L605,883.1z"/>
			</g>
			<g>
				<g>
					<g>
						<path class="st43" d="M711.8,806c0,0,13.2,115.1-0.6,112.8c-13.9-2.2-43-107.2-43-107.2L711.8,806z"/>
						<path class="st43" d="M717.2,874.4l3.3,40.5c-11,2.6-64.5,15.6-18.9-10.5L717.2,874.4z"/>
						<path class="st44" d="M720.5,911.1l0,6.2c0,0-47.2,16.9-47.8,8.8c-0.6-8,25.9-20.1,25.9-20.1S686.5,919,720.5,911.1z"/>
						<g>
							<path class="st2" d="M721.3,914.8l0,2.5c0,0-49,17.5-49.6,9.2c-0.1-0.9,0.2-1.8,0.7-2.7C673.3,931.4,715.6,916.8,721.3,914.8
								z"/>
						</g>
					</g>
					<g>
						<path class="st40" d="M816.5,689.4c0,0,17,62.5-1.6,82.5c-18.6,20-105.3,11.2-105.3,11.2s14,71.7,18,105.3
							c0,0-11.2,12.8-38,7.2c0,0-56.2-138-28.6-154.8c18.5-11.3,86.6-31.3,86.6-31.3l-3.2-31.2L816.5,689.4z"/>
						<path class="st46" d="M686.2,898.3c0,0,25.2,6.3,43.9-10.5l-2.8-11.7c0,0-17.4,11.7-43,11.1L686.2,898.3z"/>
					</g>
				</g>
				<path class="st45" d="M809.2,707.4c3.6,0.2,7.5,0.5,11.3,0.7c-1.9-10.9-4-18.6-4-18.6l-72.1-11.2l2.3,22.2
					C767.4,703.7,788.2,706.3,809.2,707.4z"/>
			</g>
		</g>
	</g>
	<g>
		<g>
			<g>
				<path class="st47" d="M404.2,552.5l-7.5,31.1c0,0,8.6,12.7,31.9,11.8l11.5-27.3L404.2,552.5z"/>
				<path class="st48" d="M413.7,506.3c-21,7.1-18.3,19.2-18.3,19.2s2.4,9.3,4.8,20.4c-2.4-2-5.2-2.5-8.5-0.8
					c-6.9,3.6,2.2,25.7,12.1,18.7c-1.8-1-1.1,5.2-0.3,6.7c4.2,7.7,22.7,16.3,35.2,15.8c12.5-0.4,25.1-14.3,22.9-26.1
					c-2.1-11.8-7.8-45.7-7.8-45.7S448.5,494.5,413.7,506.3z"/>
				<path class="st16" d="M401,546.5l3,9.9c0,0,4.4,0.4,3.8-0.3c-0.6-0.7-3.7-25.5-3.7-25.5s7.8-4.2,6.9-16.6c0,0,14.2,6.6,27.5,4.5
					c0,0,20.6-12.7,11.1-17.1c0,0-33.7-21.6-53.7,5.3c0,0-10.1,3.2-9.8,11.9c0.4,11.9,6.4,25.3,6.4,25.3S398.8,544.1,401,546.5z"/>
				<path class="st16" d="M407,511.3c0,0,12,11.7,43.3,8.3l-4.2-2.5c0,0,13,2.6,23.3-11.4l-8.2,2.6c0,0,10.6-7.5,5.1-23.8
					c0,0-0.6,7.5-14.7,8.3c0,0,5.1-2.3,4-7.4c0,0-5.9,7.3-12.7,3c-6.9-4.2-21.5-8.6-33.5-3.3c-16.2,7.1-20,17.2-18.1,24.4
					c2,7.2,15.5,2.9,15.5,2.9"/>
			</g>
			<g>
				<g>
					<path class="st49" d="M441.7,532.4c1.1,1.8,2.1,3.6,3.1,5.4c1,1.8,2,3.7,2.9,5.6c0.9,1.9,1.8,3.8,2.6,5.7
						c0.8,1.9,1.6,3.8,2.4,5.8l0.2,0.4l-0.3,0.3c-1.2,1-2.5,1.7-3.9,2.3c-1.4,0.6-2.8,1.1-4.2,1.4c1.3-0.6,2.6-1.3,3.9-2
						c1.2-0.7,2.4-1.6,3.4-2.5l-0.1,0.7c-0.9-1.9-1.8-3.8-2.6-5.6c-0.9-1.9-1.7-3.8-2.5-5.7C444.8,540.2,443.1,536.4,441.7,532.4z"
						/>
				</g>
				<g>
					<path class="st49" d="M398.6,561.6c-0.3-0.5-0.6-0.9-0.7-1.5c-0.2-0.5-0.3-1.1-0.3-1.7c0-0.6,0.3-1.2,0.8-1.7
						c0.5-0.5,1.1-0.7,1.7-0.9l-0.4,0.6c-0.3-1.5-0.6-3-1.1-4.4c-0.5-1.4-1.1-2.8-2-3.8c-0.5-0.5-1-0.8-1.6-0.9
						c-0.7-0.1-1.4,0-1.9,0.4c-0.5,0.3-0.8,1.1-0.8,1.8c-0.1,0.7,0,1.5,0.2,2.3c-0.4-0.7-0.6-1.5-0.7-2.3c0-0.4,0-0.8,0.1-1.3
						c0.1-0.4,0.3-0.9,0.7-1.2c0.7-0.7,1.6-0.8,2.5-0.9c0.9,0,1.8,0.5,2.5,1.1c1.3,1.3,1.9,2.8,2.4,4.3c0.5,1.5,0.8,3.1,0.9,4.7
						l0,0.5l-0.5,0.1c-0.5,0.1-0.9,0.2-1.3,0.5c-0.3,0.3-0.6,0.6-0.7,1.1c-0.1,0.5-0.1,1,0,1.5C398.3,560.6,398.4,561.1,398.6,561.6
						z"/>
				</g>
				<g>
					<path class="st50" d="M430.6,527c-1.7-0.1-3.3-0.1-4.9-0.1c-1.6,0.1-3.2,0.2-4.7,0.6c-0.8,0.1-1.5,0.4-2.3,0.6
						c-0.7,0.3-1.5,0.5-2.2,0.8c-1.5,0.6-2.8,1.5-4.3,2.3c0.9-1.4,2.1-2.8,3.5-3.7c0.7-0.5,1.5-0.9,2.3-1.3c0.8-0.3,1.7-0.6,2.5-0.8
						c1.7-0.3,3.5-0.4,5.2-0.1C427.5,525.6,429.2,526.1,430.6,527z"/>
				</g>
				<g>
					<path class="st50" d="M457.1,524.9c-2.8-0.9-5.5-1.4-8-0.8c-1.3,0.3-2.5,0.7-3.7,1.3c-0.3,0.1-0.6,0.3-0.9,0.5l-0.9,0.5
						c-0.6,0.4-1.2,0.8-1.8,1.2c0.3-0.7,0.7-1.3,1.1-2c0.5-0.6,1-1.2,1.6-1.6c0.3-0.2,0.6-0.5,0.9-0.7c0.3-0.2,0.7-0.4,1-0.6
						c0.2-0.1,0.4-0.2,0.5-0.3l0.6-0.2c0.4-0.1,0.8-0.3,1.2-0.3c1.6-0.3,3.2-0.2,4.7,0.3C454.8,522.8,456.1,523.7,457.1,524.9z"/>
				</g>
				<path class="st2" d="M429.5,568.3c0,0,12.3,9.9,22.5-3.3"/>
				<path class="st23" d="M428.3,538.3c0.4,2.4-0.1,4.6-1.3,4.8c-1.1,0.2-2.4-1.6-2.9-4.1c-0.4-2.4,0.1-4.6,1.3-4.8
					C426.6,534,427.8,535.9,428.3,538.3z"/>
				<path class="st23" d="M454.1,534.8c0.4,2.4-0.1,4.6-1.3,4.8c-1.1,0.2-2.4-1.6-2.9-4.1c-0.4-2.4,0.1-4.6,1.3-4.8
					C452.4,530.5,453.7,532.3,454.1,534.8z"/>
			</g>
		</g>
		<g>
			<polygon class="st41" points="377.7,767.8 364.2,908 374.7,908.5 387.9,769.7 			"/>
			<polygon class="st41" points="442.7,768.5 451.9,905.2 463.2,904.7 453.1,768.7 			"/>
			<polygon class="st10" points="327.4,787.5 313.9,917.4 324.5,917.9 337.6,789.3 			"/>
			<polygon class="st10" points="392.5,788.2 401.1,920.4 410.8,920.4 402.8,788.4 			"/>
			<path class="st41" d="M334.8,816.5l2.8-27.2l-10.2-1.8l-2.7,26C328,814.6,331.4,815.6,334.8,816.5z"/>
			<path class="st41" d="M405.2,827.2l-2.4-38.8l-10.4-0.2l2.5,38C398.4,826.5,401.8,826.9,405.2,827.2z"/>
			<path class="st8" d="M361.8,622.9c0,0-46.5,6.1-50.1,18.4c-3.6,12.3-9.1,136.6-3.6,147.1c5.5,10.5,104.5,16,112.6,13.8
				c16.3-4.5,47.2-30.5,47.2-30.5L361.8,622.9z"/>
			<path class="st42" d="M375.7,619c0,0-45.3,6-48.9,18c-3.6,12-8.9,133.6-3.6,143.8c5.3,10.3,101.9,15.7,109.8,13.5
				c15.9-4.4,46-29.9,46-29.9L375.7,619z"/>
		</g>
		<g>
			<g>
				<path class="st48" d="M498.3,844.9l-8,48.1l33.7,21.5l-59.9-8.5c1.7-5.4,7.7-33.1,11.1-64.7
					C482.9,842.5,490.6,843.7,498.3,844.9z"/>
				<path class="st51" d="M492.5,890.4l-6.3,3.5l-21.6-5.4l-1.6,20.9l66,8.9c0,0,1.8-2.8-1.5-7.9
					C523.1,903.6,492.5,890.4,492.5,890.4z"/>
				<polygon class="st2" points="526.4,914 529,918.2 463,909.3 463.4,904.4 				"/>
				<polygon class="st51" points="497,893.2 495.6,881.7 482.7,885.2 484.3,897.9 				"/>
				<line class="st52" x1="508.3" y1="897.6" x2="503.8" y2="902.2"/>
				<line class="st52" x1="503.5" y1="895" x2="499" y2="899.6"/>
				<line class="st52" x1="498.4" y1="892.6" x2="493.9" y2="897.2"/>
			</g>
			<path class="st53" d="M529.5,915.6L529.5,915.6c-0.1-0.4-0.1-0.8-0.2-1.2c0-0.2-0.1-0.5-0.2-0.7c-0.2-0.7-0.6-1.6-1.1-2.5
				c-0.2-0.3-0.4-0.6-0.6-0.9c-0.1-0.2-0.3-0.4-0.4-0.6c-0.1-0.1-0.1-0.1-0.2-0.2c-0.1-0.1-0.3-0.3-0.4-0.4
				c-0.1-0.1-0.1-0.1-0.2-0.2c-0.2-0.1-0.3-0.3-0.5-0.5c-0.1-0.1-0.1-0.1-0.2-0.2c-0.2-0.2-0.5-0.4-0.8-0.7
				c-0.1-0.1-0.1-0.1-0.2-0.2c-0.2-0.2-0.4-0.3-0.7-0.5c-0.1-0.1-0.3-0.2-0.4-0.3c-0.2-0.1-0.4-0.3-0.6-0.4
				c-0.2-0.1-0.3-0.2-0.5-0.3c-0.2-0.1-0.4-0.3-0.6-0.4c-0.2-0.1-0.3-0.2-0.5-0.3c-0.3-0.2-0.5-0.3-0.8-0.5
				c-0.3-0.2-0.6-0.4-0.9-0.6c-0.2-0.1-0.3-0.2-0.5-0.3c-0.3-0.2-0.5-0.3-0.8-0.5c-0.1-0.1-0.3-0.2-0.4-0.2
				c-0.3-0.2-0.6-0.3-0.9-0.5c-0.1,0-0.2-0.1-0.2-0.1c-1.1-0.6-2.2-1.2-3.3-1.8c0,0,0,0,0,0v0c-6-3.2-12.4-6.3-16.6-8.2l-1.3-10.6
				l-3.5,1l6.3-37.8c-7.7-1.2-15.4-2.3-23.1-3.5c-2,18.5-4.9,35.7-7.3,47.9l-3.3-0.8l-1.3,17.4l-0.2,1.2l0.1,0l-0.2,2.4l46.4,6.3
				l19.6,2.6v0h0c0,0,0.4-0.6,0.5-1.6l0,0L529.5,915.6z"/>
			<path class="st44" d="M328.3,762.8c0,0-3.1,19.7,36.9,25.6c40,5.9,85.1,11.8,85.1,11.8s36.9-30.5,20.5-39.4
				c-16.4-8.9-38-15.8-38-15.8s46.2,13.8,47.2,19.7c1,5.9-18.5,108.3-16.4,122.1l34.9,3c0,0,49.2-125.1,36.9-147.7
				c-12.3-22.7-119-36.4-119-36.4L328.3,762.8z"/>
		</g>
		<g>
			<path class="st54" d="M465.2,617.2l15.5,54.3c0,0,57.4,11.4,72.5,13.6c15,2.2-9.1,2.2-9.1,2.2s33.3,7,0,3.5c0,0,24.2,7.9-2.3,3.1
				c0,0,23.7,7-2.3,3.9c0,0-81.1,5.3-87.1-10.1c-5.9-15.3-9.6-49-9.6-49l18.7-11.8L465.2,617.2z"/>
			<path class="st47" d="M474.5,649.7l-9.3-32.4l-3.6,9.6l-18.7,11.8c0,0,1,9.5,2.9,20.7C455.3,656,464.8,652.8,474.5,649.7z"/>
			<g>
				<path class="st55" d="M430.1,591.7l-1.5,3.6c-19.5,0.7-28.7-8-31.2-10.9c-11.2-0.5-26.1,1.4-37.4,12.2
					c-20.5,19.7-44.2,113.4-32.8,170.7c0,0,83.9-28.9,104.4-43.3c20.5-14.4,28.9-99.6,29.6-106.8
					C462.2,606.3,450.6,598.4,430.1,591.7z"/>
				<path class="st56" d="M448.2,669.3c-16.5-0.5-33.8-1.9-49.7-6.4c-18.9-5.3-44.1-15.1-56.7-31.9c-13.3,37.9-22.6,96-14.6,136.2
					c0,0,83.9-28.9,104.4-43.3c10-7.1,17.2-31.1,22-54.6C451.7,669.4,449.9,669.4,448.2,669.3z"/>
			</g>
			<g>
				<g>
					<path class="st10" d="M549.5,907.6c0,2.1-2.8,3.7-6.3,3.7l0,0c-3.5,0-6.3-1.7-6.3-3.7V723.9c0-2.1,2.8-3.7,6.3-3.7l0,0
						c3.5,0,6.3,1.7,6.3,3.7V907.6z"/>
					<path class="st12" d="M486.6,918.7c0,4.1,25.3,7.4,56.5,7.4s56.5-3.3,56.5-7.4c0-4.1-25.3-14.9-56.5-14.9
						S486.6,914.6,486.6,918.7z"/>
					<path class="st10" d="M543.2,922.1c-26.4,0-48.6-2.4-54.8-5.6c-1.1,0.9-1.8,1.7-1.8,2.3c0,4.1,25.3,7.4,56.5,7.4
						s56.5-3.3,56.5-7.4c0-0.6-0.7-1.4-1.8-2.3C591.8,919.7,569.6,922.1,543.2,922.1z"/>
					<path class="st11" d="M549.5,765v-41.1c0-2.1-2.8-3.7-6.3-3.7c-3.5,0-6.3,1.7-6.3,3.7v43.8C541.1,766.8,545.3,765.9,549.5,765z
						"/>
				</g>
				<g>
					<ellipse class="st42" cx="543" cy="714.2" rx="162.4" ry="20.4"/>
					<rect x="380.6" y="702.3" class="st42" width="18.1" height="11.9"/>
					<polygon class="st42" points="705.4,702.2 687.1,702.3 687.1,714.2 705.8,714.2 					"/>
					<ellipse class="st8" cx="543" cy="703" rx="162.4" ry="20.4"/>
				</g>
			</g>
			<path class="st55" d="M452,602.4c0,0,13.6,5.4,27.3,39.5l-25,8.6L452,602.4z"/>
			<path class="st54" d="M544.1,687.3c0,0,24.2,0,9.1-2.2c-15-2.2-72.5-13.6-72.5-13.6l-1.5-5.3c-10,3.9-18.7,11.6-28.4,16
				c0.9,3.4,0,2.5,1.6,5.5c7.9,14.5,82.8,11.1,82.8,11.1c28.5,0.6,5.9-3.9,5.9-3.9c26.4,4.8,2.6-3.3,2.6-3.3
				C577,695,544.1,687.3,544.1,687.3z"/>
			<path class="st57" d="M388.9,696.8c0,0,27.2-11.8,45.7-7.9l47.2,19.7c0,0-32.3-2-50.3,15.3L388.9,696.8z"/>
			<path class="st57" d="M434.5,688.9c0,0,19-15.3,44.1-10.3l48.7,20.7c0,0-30.3-4.9-45.7,9.4L434.5,688.9z"/>
			<path class="st58" d="M434.5,688.9c0,0,19-15.3,44.1-10.3l48.7,20.7c0,0-30.3-4.9-45.7,9.4L434.5,688.9z"/>
			<g>
				<path class="st54" d="M412.8,583.3c0,0-11.8-9.9-10-16.5c2.4-9.2,23.9-29.8,5.7-0.9c0,0,28.2-29.4,5.3,2.8
					c0,0,22.5-22.9,5.3,3.2c0,0,9.6,1.8,9.1,9.2c-0.5,7.3,26.2,105.9-7.1,113.7C402,699.2,396,689.2,412.8,583.3z"/>
				<path class="st54" d="M367.2,645.7c0,0,21.9,60.9,56.5,48.1c5.9-2.2-2.3-23.6-2.3-23.6l-5.9-9.6l-16.9-31.5L367.2,645.7z"/>
				<path class="st47" d="M401.2,633.7l-2.5-4.6l-31.5,16.6c0,0,1.2,3.3,3.4,8.1C381.4,647.9,391.7,641.4,401.2,633.7z"/>
			</g>
		</g>
		<g>
			<g>
				<path class="st48" d="M532.9,853.2l26.6,41.4l40.1-4.8l-51.1,31.1c-2.4-5.2-16.7-29.9-35.6-56
					C519.6,861,526.2,857.1,532.9,853.2z"/>
				<path class="st51" d="M559.4,891.3l-2.5,6.6l-20,9.4l13,16.9l56-34.6c0,0-0.5-3.3-6.6-5.1C591.5,882.1,559.4,891.3,559.4,891.3z
					"/>
				<polygon class="st2" points="604.9,887.1 605.9,889.5 549.9,924.1 546.9,920.2 				"/>
				<polygon class="st51" points="564.7,890.6 555.8,882.8 548.5,893.5 558.3,902.1 				"/>
				<line class="st52" x1="576.2" y1="886.8" x2="576" y2="893.2"/>
				<line class="st52" x1="570.8" y1="887.9" x2="570.6" y2="894.2"/>
				<line class="st52" x1="565.3" y1="889.2" x2="565.1" y2="895.6"/>
			</g>
			<path class="st59" d="M479.1,759.8c-16.4-8.9-46.2-14.8-46.2-14.8l-7.2-17.4c-24.9,13.9-86.7,35.6-97.1,39.2
				c1.5,6.1,8.1,17.3,36.6,21.5c40,5.9,85.1,11.8,85.1,11.8l78,97.5c0,0,18.5-9.8,27.7-18.7C556,879,495.5,768.7,479.1,759.8z"/>
		</g>
	</g>
	<g>
		<g>
			<g>
				<path class="st60" d="M729,614.9l-22.9,40.3c-6.2-3.4-35.4-20-35.4-20c-6.7-20-4.6-3.5-4.6-3.5l0.2,0.5
					c-23.5-14.3-6.5-0.2-6.5-0.2c-23-13.4-2.6,1.9-2.6,1.9c-23.5-11.8-1.6,2.9-1.6,2.9s-6.5-4.1-9.2-4.4c-2.3-0.3,12.6,12,21.4,19
					c12.5,10.2,34.4,27.4,41.6,28.4c10.2,1.4,36.9-42.8,36.9-42.8L729,614.9z"/>
				<path class="st58" d="M740.1,646.8c3.7-5.6,6.1-9.6,6.1-9.6L729,614.9l-11,19.4C724.2,640.6,731.8,644,740.1,646.8z"/>
				<path class="st35" d="M749.4,595.8c0,0-16.4,1.9-31.8,30.8c0,0,7.5,10.9,18.4,10.3c10.9-0.6,16.1-41,16.1-41L749.4,595.8z"/>
			</g>
			<g>
				<polygon class="st57" points="623,635 663.6,621.1 670.2,662.3 				"/>
				<polygon class="st36" points="623,635 663.6,621.1 670.2,662.3 				"/>
				<polygon class="st57" points="623,635 630,698.6 677.2,707.3 671.6,636.8 				"/>
			</g>
		</g>
		<g>
			<g>
				<path class="st60" d="M796.5,600.8l3.9-35.6l-31.3,3.1l-2,28.7l-15.1-1c0,0-26,45.7,12.3,52.6c38.3,6.9,49.6-34,49.6-34
					L796.5,600.8z"/>
				<path class="st60" d="M810.8,535c-13.9-32.1-49.1-11.7-66.1-2.7c6.4,17.7,7,21.5,10,40.6c15.6,19.5,38.9,16.7,51.6,14.1
					C817.5,584.7,823.1,563.4,810.8,535z"/>
				<path class="st18" d="M813.8,509.5c0-4.1-10-8.1-20.1-5.3c0.1-0.4,0.1-0.9-0.1-1.3c-2.2-5.7-20.9-3.9-32.7,13.7
					c0,0-18.1-1.3-23.7,18.1c-5.6,19.4,11.7,38.8,31.1,49.1c0,0-3.5-9.4-5.4-15.2c0,0-7.2,0-8.7-8.4c-1.6-8.4,5.9-10.2,8.1-3.3
					c2.2,6.9,7.2,7.8,4.7-1.2c-0.1-0.3-0.1-0.5-0.2-0.7c2.2-2.6,9.5-12.4,3.6-25.9c0,0,28.6,12.6,25.5-0.6c0,0,13.1,5.4,15.6-3.6
					c2.5-9-9.3-11.4-9.3-11.4S813.8,514.8,813.8,509.5z"/>
				<path class="st18" d="M739.7,532.2c0,0,0.2-19.7-11.2-20.2c-11.4-0.4-4.9,11.2-4.9,11.2s-6.8-15-23.3-7.4
					c-16.6,7.6-4.7,20.2,6.1,22.9c10.7,2.7-6.8-6.7-8.2,3.4c-1.4,10.1,19.1,5.4,19.1,5.4s-12.6,5.2-4.2,13.2
					c8.4,8.1,31.8-14.8,27.8-28.2"/>
			</g>
			<g>
				<g>
					<path class="st18" d="M792.7,539.4c-1.5-0.4-3.1-0.7-4.6-0.9c-1.5-0.2-3.1-0.2-4.6,0.1c-1.5,0.2-2.9,0.8-4.2,1.5l-1,0.6
						l-0.9,0.7c-0.6,0.5-1.1,1.1-1.7,1.7c0.8-1.4,1.7-2.8,3.1-3.7c1.3-0.9,2.9-1.6,4.5-1.8c1.6-0.2,3.3-0.2,4.8,0.2
						C789.8,538,791.3,538.6,792.7,539.4z"/>
				</g>
				<g>
					<path class="st18" d="M812.4,538.9c-1-0.7-2.1-1.3-3.2-1.8c-1.1-0.5-2.2-0.9-3.4-1c-1.1-0.1-2.2,0.2-3.2,0.9
						c-0.5,0.3-0.9,0.7-1.3,1.2c-0.4,0.4-0.7,1-1.1,1.4c0.2-0.6,0.4-1.2,0.8-1.7c0.4-0.5,0.7-1.1,1.2-1.5c1-0.9,2.4-1.4,3.7-1.3
						c1.3,0.1,2.6,0.6,3.7,1.3C810.7,537.1,811.6,537.9,812.4,538.9z"/>
				</g>
				<g>
					<path class="st61" d="M799.5,541.4c2,3.1,4,6.2,5.8,9.4c0.9,1.6,1.9,3.2,2.8,4.8c0.9,1.6,1.8,3.2,2.7,4.8l0.1,0.3l-0.3,0.1
						c-2.5,1-4.9,2.1-7.4,3.1c2.4-1.2,4.8-2.4,7.2-3.5l-0.1,0.4c-1-1.6-1.9-3.2-2.8-4.7c-0.9-1.6-1.9-3.2-2.8-4.8
						C802.9,548,801.2,544.7,799.5,541.4z"/>
				</g>
				<g>
					<path class="st62" d="M793.1,551.8c-1-1.2-2.1-2.2-3.2-3.2c-1.1-0.9-2.4-1.8-3.7-1.8c-1.3,0-2.3,1.2-3,2.5
						c-0.7,1.3-1.2,2.8-1.6,4.2c0.1-1.5,0.3-3.1,0.9-4.6c0.3-0.7,0.7-1.5,1.3-2.1c0.6-0.6,1.5-1,2.4-1.1c1.8,0,3.2,1.1,4.3,2.2
						C791.5,549.2,792.4,550.4,793.1,551.8z"/>
				</g>
				<g>
					<path class="st62" d="M814.5,547.8c-0.9-1.1-1.9-2.1-3-3.1c-1-0.9-2.2-1.8-3.4-2c-0.6-0.1-1.1,0.1-1.6,0.5
						c-0.5,0.4-0.8,1-1.1,1.6c-0.5,1.3-0.9,2.7-1.3,4c0-1.4,0.1-2.9,0.6-4.3c0.2-0.7,0.6-1.4,1.1-2c0.6-0.6,1.5-1,2.3-0.8
						c1.7,0.3,2.8,1.4,3.8,2.5C813,545.3,813.8,546.5,814.5,547.8z"/>
				</g>
				<g>
					<path class="st2" d="M786.4,570.4c0,0,17.3,11.9,21.1-2.9L786.4,570.4"/>
				</g>
				<ellipse class="st2" cx="762.6" cy="569.5" rx="2.8" ry="2.7"/>
				<g>
					<path class="st61" d="M761.5,565.9c-0.6,0.1-1.3,0.2-1.9-0.1c-0.3-0.1-0.6-0.4-0.7-0.8c-0.1-0.4,0-0.7,0.1-1
						c0.2-0.6,0.7-1.3,1.4-1.5c0.7-0.2,1.4-0.1,2.1,0.1L762,563c-0.4-1.1-0.8-2.3-1.2-3.4c-0.5-1.1-1-2.2-1.7-3.1
						c-0.4-0.4-0.8-0.7-1.3-0.6c-0.5,0.1-0.8,0.6-1.1,1.1c-0.5,1.1-0.7,2.3-0.9,3.5c0-1.2,0.1-2.5,0.5-3.7c0.2-0.6,0.6-1.2,1.3-1.5
						c0.2-0.1,0.4-0.1,0.6-0.1c0.2,0,0.4,0.1,0.5,0.1c0.1,0.1,0.3,0.2,0.4,0.3l0.4,0.3c0.9,1,1.4,2.1,1.9,3.2
						c0.5,1.1,0.9,2.3,1.2,3.5l0.2,0.7l-0.6-0.3c-0.5-0.2-1.1-0.3-1.6-0.2c-0.5,0.1-0.9,0.6-1.1,1.1c-0.2,0.5-0.2,1.2,0.3,1.4
						C760.2,565.9,760.9,565.9,761.5,565.9z"/>
				</g>
			</g>
		</g>
		<g>
			<path class="st35" d="M816,613.8l-16.5-11.1c0,0-11.2,15.4-27.1,14.9c-29-0.8-12.6-21.4-12.6-21.4l-10.4-0.4
				c0,0-40.4,42.7-10.1,70.7l-9.7,25.7c0,0,19.4,13.6,91.7,7.2l-0.1-45.9L816,613.8z"/>
			<path class="st63" d="M818.5,633.3c-10.8,8.1-23.5,14.1-36.3,18.3c-11.1,3.7-25.2,8.7-37.1,5.7c-6.3-1.6-11.5-5-16.4-9
				c1.3,6.3,4.5,12.6,10.6,18.2l-9.7,25.7c0,0,19.4,13.6,91.7,7.2l-0.1-45.9L818.5,633.3z"/>
		</g>
		<g>
			<g>
				<g>
					<path class="st60" d="M702.1,696.4c0,0-4.8-1.6-1-2.9c0,0-3.2-1.4-0.6-2.7c0,0-15.8-1.1-0.1-2.7c3.1-0.3,14.5-1,14.5-1
						s2.8,1,4.7,2.9c0.1,0.1-6.8-1.2-6.7-1.1c-4.6,7.4-2.1,12.1-3,11.9C699.4,698.3,702.1,696.4,702.1,696.4z"/>
					<path class="st60" d="M716.8,689.3c0,0-6-5-9.2-5.5c-3.2-0.5,2.5,5.5,2.5,5.5L716.8,689.3z"/>
				</g>
				<path class="st60" d="M785,653.8c0,0,8.5-42.9,26.6-40.4c22.7,3.1,7.9,38.5,2.3,55.8c-4.9,15.2-17.6,49.2-34,48.9
					c-10.6-0.2-72.9-18-74.3-18.6c-3.9-1.6-4.1-6.9-3.6-8.8c2.1-8.7,69.9-0.3,69.9-0.3L785,653.8z"/>
			</g>
			<g class="st64">
				<path class="st18" d="M812.5,673.5c0.5-1.5,1-2.9,1.4-4.2c5.6-17.3,20.4-52.6-2.3-55.8c-18.1-2.5-26.6,40.4-26.6,40.4l-3.2,9
					C790.4,668.5,801.2,671.8,812.5,673.5z"/>
			</g>
			<path class="st35" d="M799.5,602.7c0,0,27.1,11.4,27.1,29.3c0,17-7.5,37.2-7.5,37.2s-25.9-1.5-40.2-11.9
				C778.9,657.3,797.9,621.2,799.5,602.7z"/>
		</g>
	</g>
</g>
</svg>
