<?xml version="1.0" encoding="utf-8"?>
<!-- Generator: Adobe Illustrator 23.0.6, SVG Export Plug-In . SVG Version: 6.00 Build 0)  -->
<svg version="1.1" id="Layer_3" xmlns="http://www.w3.org/2000/svg" xmlns:xlink="http://www.w3.org/1999/xlink" x="0px" y="0px"
	 viewBox="0 0 306 294" style="enable-background:new 0 0 306 294;" xml:space="preserve">
<style type="text/css">
	.st0{fill:#F5B953;}
	.st1{fill:#669E4F;}
	.st2{fill:#78B75B;}
	.st3{fill:#EFBE9A;}
	.st4{fill:#C18E59;}
	.st5{fill:#E47C6E;}
	.st6{fill:#F097D0;}
	.st7{fill:#DB9B7C;}
	.st8{fill:#D6759E;}
</style>
<ellipse class="st0" cx="226.8" cy="76.7" rx="36.7" ry="34.7"/>
<ellipse class="st1" cx="249.8" cy="115.7" rx="32.1" ry="30.3"/>
<ellipse class="st2" cx="203.9" cy="115.7" rx="32.1" ry="30.3"/>
<path class="st3" d="M25.2,146l55,130l55-130"/>
<path class="st4" d="M162.7,128.7H291V146H162.7V128.7z"/>
<ellipse class="st5" cx="226.8" cy="29" rx="13.8" ry="13"/>
<ellipse class="st5" cx="80.2" cy="29" rx="13.8" ry="13"/>
<path class="st6" d="M36.2,97.5c-1.2-3.9-1.8-7.9-1.8-12.1C34.3,61.4,54.9,42,80.2,42S126,61.4,126,85.3c0,4.2-0.6,8.3-1.8,12.1"/>
<path class="st4" d="M16,128.7h128.3V146H16V128.7z"/>
<path class="st7" d="M118.4,185.5l5.1-11.9l-10.9-27.5l0-0.1h-9.9l-8.9,20.6L85.1,146h-9.9l-8.7,20.6L57.6,146h-9.9l0,0.1
	l-10.9,27.5l5.1,11.9l11-27.6l8.8,20.3l-11.4,27l4.9,11.7l11.5-27.1l8.6,19.9l-11.7,27.1l4.9,11.6L80.2,221l11.8,27.2l4.9-11.6
	l-11.7-27.1l8.6-19.9l11.5,27.1l4.9-11.7l-11.4-27l8.8-20.3L118.4,185.5z M80.2,198.1l-8.6-20l8.6-20.4l8.6,20.4L80.2,198.1z"/>
<path class="st3" d="M171.8,146l55,130l55-130"/>
<path class="st7" d="M265.1,185.5l5.1-11.9l-10.9-27.5l0-0.1h-9.9l-8.9,20.6l-8.7-20.6h-9.9l-8.7,20.6l-8.9-20.6h-9.9l0,0.1
	l-10.9,27.5l5.1,11.9l11-27.6l8.8,20.3l-11.4,27l4.9,11.7l11.5-27.1l8.6,19.9l-11.7,27.1l4.9,11.6l11.8-27.2l11.8,27.2l4.9-11.6
	l-11.7-27.1l8.6-19.9l11.5,27.1l4.9-11.7l-11.4-27l8.8-20.3L265.1,185.5z M226.8,198.1l-8.6-20l8.6-20.4l8.6,20.4L226.8,198.1z"/>
<path class="st3" d="M99.1,83.3l32.1-56.4l8.1,4.1l-32.1,56.4L99.1,83.3z"/>
<path class="st3" d="M21.1,31.1l8.1-4.1l32.1,56.4l-8.1,4.1L21.1,31.1z"/>
<path class="st8" d="M25.2,128.7c0-28.7,24.6-52,55-52s55,23.3,55,52"/>
</svg>
