<?xml version="1.0" encoding="utf-8"?>
<!-- Generator: Adobe Illustrator 23.0.6, SVG Export Plug-In . SVG Version: 6.00 Build 0)  -->
<svg version="1.1" id="Layer_1" xmlns="http://www.w3.org/2000/svg" xmlns:xlink="http://www.w3.org/1999/xlink" x="0px" y="0px"
	 viewBox="0 0 85.3 77.9" style="enable-background:new 0 0 85.3 77.9;" xml:space="preserve">
<style type="text/css">
	.st0{fill:#FFFFFF;}
</style>
<g>
	<path class="st0" d="M81.8,8.4c-0.7-0.5-1.6-0.3-2.1,0.4L61.5,34.4L73.4,5c0.3-0.8-0.1-1.6-0.8-2c-0.8-0.3-1.6,0.1-2,0.8l-12,29.7
		c-2.2-8.7-10.1-15.2-19.5-15.2c-11,0-20,8.9-20.1,20H4.8c-0.8,0-1.5,0.7-1.5,1.5c0,19.8,16.1,35.8,35.8,35.8
		c19.8,0,35.8-16.1,35.8-35.8c0-0.8-0.7-1.5-1.5-1.5H62.4l19.8-27.9C82.7,9.8,82.5,8.9,81.8,8.4z M30.8,38.3c0.1-4.5,3.8-8,8.3-8
		s8.2,3.6,8.3,8H30.8z M39.1,21.4c9.4,0,17,7.5,17.2,16.9h-5.8c-0.1-6.1-5.2-11-11.3-11s-11.2,4.9-11.3,11H22
		C22.1,29,29.7,21.4,39.1,21.4z M39.1,72.7c-17.6,0-32-13.9-32.8-31.3h65.6C71.1,58.8,56.7,72.7,39.1,72.7z"/>
</g>
<path class="st0" d="M5.4,39.8c10.6,0.8,19.1,0.8,24.9,0.8c20.2-0.3,28.2-0.8,28.2-0.8c11.3-0.7,13.2-1.3,14.3,0.1
	c4,5.5-9.4,33.1-31.3,34.5C25.1,75.5,8.3,61.7,5.1,41.2"/>
</svg>
