<?xml version="1.0" encoding="utf-8"?>
<!-- Generator: Adobe Illustrator 23.0.6, SVG Export Plug-In . SVG Version: 6.00 Build 0)  -->
<svg version="1.1" id="Layer_3" xmlns="http://www.w3.org/2000/svg" xmlns:xlink="http://www.w3.org/1999/xlink" x="0px" y="0px"
	 viewBox="0 0 305 305" style="enable-background:new 0 0 305 305;" xml:space="preserve">
<style type="text/css">
	.st0{fill:#C1C8D1;}
	.st1{fill:#C7E2FC;}
	.st2{fill:#EBF7FE;}
	.st3{fill:#F5B953;}
	.st4{fill:#E47C6E;}
	.st5{fill:#78B75B;}
	.st6{fill:#8892A0;}
	.st7{fill:#D6759E;}
	.st8{fill:#F097D0;}
</style>
<path class="st0" d="M206.1,16H99.9C95,16,91,19.9,91,24.7v17.4c0,4.8,4,8.7,8.9,8.7h106.3c4.9,0,8.9-3.9,8.9-8.7V24.7
	C215,19.9,211,16,206.1,16z"/>
<path class="st1" d="M210.6,68.2H95.4C75.9,68.2,60,83.8,60,103v139.2c0,19.2,15.9,34.8,35.4,34.8h115.1c19.6,0,35.4-15.6,35.4-34.8
	V103C246,83.8,230.1,68.2,210.6,68.2z"/>
<path class="st2" d="M209.1,68.2H95.4C75.9,68.2,60,83.8,60,103v132.4c15.9,9.9,34.2,15.5,53.8,15.5c60.8,0,110.1-54.5,110.1-121.8
	C223.9,106.9,218.5,86.1,209.1,68.2z"/>
<path class="st1" d="M99.9,50.8h106.3v21.8H99.9V50.8z"/>
<ellipse class="st3" cx="210.6" cy="246.6" rx="13.3" ry="13.1"/>
<ellipse class="st3" cx="215" cy="203.1" rx="13.3" ry="13.1"/>
<ellipse class="st4" cx="179.6" cy="172.6" rx="13.3" ry="13.1"/>
<ellipse class="st4" cx="95.4" cy="246.6" rx="13.3" ry="13.1"/>
<ellipse class="st5" cx="170.7" cy="216.1" rx="13.3" ry="13.1"/>
<ellipse class="st5" cx="117.6" cy="146.5" rx="13.3" ry="13.1"/>
<g>
	<path class="st6" d="M104.3,16h8.9v34.8h-8.9V16z"/>
	<path class="st6" d="M122,16h8.9v34.8H122V16z"/>
	<path class="st6" d="M139.7,16h8.9v34.8h-8.9V16z"/>
	<path class="st6" d="M157.4,16h8.9v34.8h-8.9V16z"/>
	<path class="st6" d="M175.1,16h8.9v34.8h-8.9V16z"/>
	<path class="st6" d="M192.9,16h8.9v34.8h-8.9V16z"/>
</g>
<path class="st0" d="M110,214.8l6.3-6.2l53.1,52.2l-6.3,6.2L110,214.8z"/>
<path class="st0" d="M136.6,169.5l53.1-52.2l6.3,6.2l-53.1,52.2L136.6,169.5z"/>
<ellipse class="st7" cx="99.9" cy="198.7" rx="22.1" ry="21.8"/>
<ellipse class="st7" cx="206.1" cy="107.3" rx="22.1" ry="21.8"/>
<path class="st8" d="M81.4,210.7c1.6,2.4,3.8,4.5,6.3,6.2l30.7-30.1c-1.6-2.4-3.8-4.5-6.3-6.2L81.4,210.7z"/>
<path class="st8" d="M187.7,95.4l30.7,30.1c2.5-1.6,4.6-3.7,6.3-6.2l-30.7-30.1C191.5,90.8,189.3,92.9,187.7,95.4z"/>
</svg>
