<?xml version="1.0" encoding="utf-8"?>
<!-- Generator: Adobe Illustrator 23.0.6, SVG Export Plug-In . SVG Version: 6.00 Build 0)  -->
<svg version="1.1" id="a62e712f-3cb4-4d7a-829a-d896e102ddef"
	 xmlns="http://www.w3.org/2000/svg" xmlns:xlink="http://www.w3.org/1999/xlink" x="0px" y="0px" viewBox="0 0 990.1 695.4"
	 style="enable-background:new 0 0 990.1 695.4;" xml:space="preserve">
<style type="text/css">
	.st0{fill:#B55E1C;}
	.st1{opacity:0.1;fill:#B55E1C;enable-background:new    ;}
	.st2{fill:#E6E6E6;}
	.st3{fill:#3F3D56;}
	.st4{opacity:0.29;fill:#008B91;}
	.st5{fill:none;stroke:#3F3D56;stroke-width:2;stroke-miterlimit:10;}
	.st6{fill:#FFFFFF;}
	.st7{fill:#A0616A;}
	.st8{fill:#2F2E41;}
	.st9{opacity:0.1;enable-background:new    ;}
	.st10{fill:#575A89;}
</style>
<title>review</title>
<ellipse class="st0" cx="155" cy="683.4" rx="155" ry="12"/>
<path class="st1" d="M124.3,28.3l-0.1-0.7l-12.6-6.7h-2l-0.8-1.4H82.9l-6,1.4H54.8l-6,7l-0.1,0.4c-0.4,2.5-9.1,61.3,13.8,80.1
	l9.5,4.4h6.2l-1.2-2.4l5.4,2.4h17.4l0.3-0.5l10.3-3.9l0.3-0.3C111.6,107.1,133.5,80.5,124.3,28.3z"/>
<rect x="82.9" y="86.8" class="st2" width="10.2" height="26.6"/>
<rect x="78.3" y="147.6" class="st3" width="18.4" height="510.7"/>
<rect x="73.7" y="138.9" class="st3" width="27.6" height="17.4"/>
<polygon class="st3" points="63.5,107.2 80.9,125.6 73.7,138.9 88,142 101.3,138.9 93.1,124.6 109.5,107.2 "/>
<path class="st3" d="M50.2,28.6l-8.2-8.2l6.1-6.1h77.6l6.1,7.1l-9.2,7.1C122.7,28.6,73.7,26.6,50.2,28.6z"/>
<path class="st3" d="M124.3,28.3l-0.1-0.7l-12.6-6.7l-5.7-3l-32.2-2.1l-18.1,4.2l-0.7,0.9l-6,7l-0.1,0.4
	c-0.4,2.5-9.1,61.3,13.8,80.1l9.5,4.4l8,3.7l-1.9-3.7l-3.1-6.1C72,88.2,65,39.3,69.5,29l18.5-6l16.4,6.1c1.1,7.3,8.5,58.8-4.4,77.2
	l-0.3,0.4v5.8l10.6-4l0.3-0.3C111.6,107.1,133.5,80.5,124.3,28.3z M108.5,106l-5.7,2.1v-0.4c14.1-21,4.9-77.5,4.5-79.9l-0.1-0.9
	l-16.1-6l-3-1.1l-3.5,1.1l-17.3,5.6L67,27c-6.6,11.8,4.7,77.7,5.2,80.5l0,0.2l1.2,2.4l-9.1-4.2C44,89,50.9,34.6,51.7,29.3l5.5-6.4
	l8-1.9l8.6-2l14.2,0.9l16.9,1.1l0,0l16.4,8.7C129.5,76.9,110.9,102.9,108.5,106L108.5,106z"/>
<ellipse class="st3" cx="88" cy="14.3" rx="27.6" ry="14.3"/>
<path class="st3" d="M73.7,632.2l-16.3,52.1c0,0,25.5,14.3,60.3,0l-16.3-52.1H73.7z"/>
<circle class="st0" cx="88" cy="81.7" r="8.2"/>
<path class="st0" d="M389.4,383.2c4.3,16,19.1,25.8,19.1,25.8s7.8-16,3.5-31.9s-19.1-25.8-19.1-25.8S385.1,367.3,389.4,383.2z"/>
<path class="st2" d="M395.8,379.8c11.8,11.5,13.3,29.2,13.3,29.2s-17.8-1-29.6-12.5s-13.3-29.2-13.3-29.2S383.9,368.3,395.8,379.8z"
	/>
<path class="st4" d="M980.4,380.1l-413,117.1l376.9-212.3c-17.2-31.5-38.7-60.3-64.1-85.8L514.5,400.3l306.1-249.9
	c-43.9-29-93.4-48.5-145.4-57.1L505.7,376.3L618,88.2c-1.7,0-3.3,0-5,0c-208.2,0-377.1,168.8-377.1,377.1
	c-0.1,68.9,18.7,136.5,54.5,195.3h645.2C986.4,576.4,1002.5,475.8,980.4,380.1L980.4,380.1z"/>
<path class="st0" d="M948,625.3c0-32.2-16.3-58.2-36.5-58.2c-12.7,0-23.8,10.3-30.3,25.9c-2.2-0.9-4.6-1.4-7-1.4
	c-6.1,0-11.7,3.1-16.3,8.4c-5.9-19.5-18.4-33-32.8-33c-13.5,0-25.3,11.8-31.6,29.2c-3.5-3-7.9-4.6-12.5-4.7c-15.5,0-28,20-28,44.7
	c-0.1,8.2,1.4,16.4,4.4,24.1h183.2C945.3,650.6,948,638.5,948,625.3z"/>
<path class="st5" d="M579.4,233.8L579.4,233.8c0-77.8,63.1-140.9,140.9-140.9l0,0"/>
<path class="st0" d="M630.6,252.2c-11.3,41.7-49.9,67.6-49.9,67.6s-20.4-41.8-9.1-83.5s49.9-67.6,49.9-67.6S641.9,210.5,630.6,252.2
	z"/>
<path class="st0" d="M528,252.2c11.3,41.7,49.9,67.6,49.9,67.6s20.4-41.8,9.1-83.5S537,168.7,537,168.7S516.7,210.5,528,252.2z"/>
<path class="st3" d="M544.6,243.3c31,30.1,34.8,76.5,34.8,76.5s-46.4-2.5-77.4-32.7s-34.8-76.5-34.8-76.5S513.6,213.1,544.6,243.3z"
	/>
<path class="st3" d="M614.1,243.3c-31,30.1-34.8,76.5-34.8,76.5s46.4-2.5,77.4-32.7s34.8-76.5,34.8-76.5S645,213.1,614.1,243.3z"/>
<path class="st0" d="M697.5,123c5-18.5,22.1-29.9,22.1-29.9s9,18.5,4,37c-5,18.5-22.1,29.9-22.1,29.9S692.5,141.5,697.5,123z"/>
<path class="st0" d="M743,123c-5-18.5-22.1-29.9-22.1-29.9s-9,18.5-4,37c5,18.5,22.1,29.9,22.1,29.9S748,141.5,743,123z"/>
<path class="st3" d="M735.6,127c-13.7-13.4-15.4-33.9-15.4-33.9s20.6,1.1,34.3,14.5s15.4,33.9,15.4,33.9S749.3,140.4,735.6,127z"/>
<path class="st3" d="M704.8,127c13.7-13.4,15.4-33.9,15.4-33.9s-20.6,1.1-34.3,14.5s-15.4,33.9-15.4,33.9S691.1,140.4,704.8,127z"/>
<path class="st3" d="M870.8,503.6H854v-93.1c0-5.3-4.3-9.6-9.6-9.6h-28.8v-82c0-5.3-4.3-9.6-9.6-9.6H357.6c-5.3,0-9.6,4.3-9.6,9.6
	v82h-28.8c-5.3,0-9.6,4.3-9.6,9.6v93.1h-16.8c-5.3,0-9.6,4.3-9.6,9.6v137.7c0,5.3,4.3,9.6,9.6,9.6h578c5.3,0,9.6-4.3,9.6-9.6V513.2
	C880.4,507.9,876.1,503.6,870.8,503.6z"/>
<path class="st0" d="M786.8,474.5c-8.8,14-6.1,31.5-6.1,31.5s17-5.1,25.9-19.1s6.1-31.5,6.1-31.5S795.6,460.5,786.8,474.5z"/>
<path class="st2" d="M793.6,476.8c-0.5,16.5-12.5,29.6-12.5,29.6s-11.3-13.7-10.8-30.2s12.5-29.6,12.5-29.6S794.1,460.3,793.6,476.8
	z"/>
<rect x="309.6" y="503.6" class="st2" width="544.4" height="9.6"/>
<rect x="348" y="401.1" class="st2" width="467.5" height="9.6"/>
<circle class="st0" cx="720.3" cy="167.4" r="9.6"/>
<polygon class="st0" points="412.4,390.7 665.4,318.8 703.1,451.6 684.8,456.8 698.8,505.8 635.8,470.7 450.1,523.4 "/>
<path class="st6" d="M565.8,449.5l-5.6-2.8c-20-10.1-33.1-16.5-36.5-28.3c-2.8-9.2,2.4-18.9,11.6-21.7c0.2,0,0.3-0.1,0.5-0.1
	c5.4-1.5,11.1-0.6,15.7,2.6c2.3-5.1,6.7-8.9,12-10.4c9.2-2.7,18.9,2.5,21.6,11.7c0,0.2,0.1,0.3,0.1,0.5c3.3,11.8-4.4,24.2-16.2,43.2
	L565.8,449.5z"/>
<path class="st7" d="M116.8,318.1c0,0-6.5,19.5-2.9,23.8s-21.6-13-21.6-13l13.7-15.9L116.8,318.1z"/>
<circle class="st8" cx="102" cy="285.7" r="32.4"/>
<polygon class="st7" points="227.9,537.4 211.3,550.4 201.9,535.2 218.5,523.7 "/>
<path class="st8" d="M204.5,635.1l4.3,20.9l12.3,16.6c0,0,33.2,10.1,10.8,15.1s-27.4-3.6-27.4-3.6l-15.9-13.7v18.8h-10.1l-2.2-26.7
	c0,0-1.4-7.9,5-16.6l1.4-13L204.5,635.1z"/>
<path class="st7" d="M120.8,376.2l5.8,33.2c0,0,61.3-6.5,65.6,5.8S198,431,198,431l-12.3,4.3l-5.8-10.8c-3.6-1.3-7.5-1-10.8,0.7
	c-5.8,2.9-56.3,10.1-59.9,0.7s-13.7-44-13.7-44l15.1-12.3L120.8,376.2z"/>
<path class="st9" d="M120.8,376.2l5.8,33.2c0,0,61.3-6.5,65.6,5.8S198,431,198,431l-12.3,4.3l-5.8-10.8c-3.6-1.3-7.5-1-10.8,0.7
	c-5.8,2.9-56.3,10.1-59.9,0.7s-13.7-44-13.7-44l15.1-12.3L120.8,376.2z"/>
<path class="st8" d="M154.7,472.1l5,17.3l13,66.4c0,0,1.4,49,3.6,54.8s2.2,6.5,0,8.7s-6.5,9.4,0,13.7s29.6,9.4,30.3,4.3
	s0.7-13,0-16.6s2.2-59.9,2.2-59.9l-8.7-85.8l-29.6-13.7L154.7,472.1z"/>
<path class="st9" d="M154.7,472.1l5,17.3l13,66.4c0,0,1.4,49,3.6,54.8s2.2,6.5,0,8.7s-6.5,9.4,0,13.7s29.6,9.4,30.3,4.3
	s0.7-13,0-16.6s2.2-59.9,2.2-59.9l-8.7-85.8l-29.6-13.7L154.7,472.1z"/>
<path class="st8" d="M185.7,404.3l15.9,30.3c0,0,90.9,40.4,82.9,57s-51.9,47.6-51.9,47.6s-2.2,12.3-8.7,8.7s-22.4-22.4-20.9-24.5
	s6.5-7.2,8.7-6.5s27.4-18.8,27.4-18.8l-43.3-10.8c0,0-51.9-1.4-54.8-26s0-28.8,0-28.8l-3.6-7.9l29.6-18L185.7,404.3z"/>
<path class="st8" d="M208.1,524.1l-15.1,13.7c0,0-13-5.8-20.9-3.6s-21.6,3.6-21.6,3.6l2.2,12.3l18.4-3.4l-14.8,20.7
	c0,0,0,32.5,9.4,32.5s6.5-19.5,6.5-19.5l28.8-22.4c0,0,14.4-5.8,15.9-5.8S208.1,524.1,208.1,524.1z"/>
<ellipse transform="matrix(7.088900e-02 -0.9975 0.9975 7.088900e-02 -192.7759 391.824)" class="st7" cx="113.9" cy="299.4" rx="24.5" ry="24.5"/>
<path class="st10" d="M89.8,318.5c0,0,11.5-2.9,15.1,0s4.3,9.4,9.4,10.1s9.4,0.7,10.1,1.4s17.3,20.9,17.3,20.9s10.1,5.8,12.3,13.7
	s23.8,34.6,26.7,37.5s-18.8,17.3-26,22.4s-28.1,7.2-34.6-4.3S78.2,333.7,89.8,318.5z"/>
<path class="st7" d="M117.2,365.4l5.8,33.2c0,0,61.3-6.5,65.6,5.8c4.3,12.3,5.8,15.9,5.8,15.9l-12.3,4.3l-5.8-10.8
	c-3.6-1.3-7.5-1-10.8,0.7c-5.8,2.9-56.3,10.1-59.9,0.7s-13.7-44-13.7-44l15.1-12.3L117.2,365.4z"/>
<path class="st10" d="M103.4,321.5c0,0,17.4,36.6,15.9,46.7s-6.5,2.9-6.5,2.9s-6.5-10.1-9.4-4.3s-6.5,13.7-9.4,13
	S75.4,325.7,84,320.7S103.4,321.5,103.4,321.5z"/>
<ellipse transform="matrix(4.531440e-02 -0.999 0.999 4.531440e-02 -178.9363 298.9557)" class="st8" cx="66.9" cy="243.1" rx="32.4" ry="32.4"/>
<path class="st8" d="M39,269.9c14.5,10.5,34.7,7.2,45.2-7.3c2.1-2.9,3.8-6.2,4.8-9.7c-2.2,17.7-18.4,30.3-36.2,28.1
	c-17.7-2.2-30.3-18.4-28.1-36.2c0.2-1.8,0.6-3.5,1.1-5.2C24.4,251.4,29.4,263,39,269.9z"/>
<circle class="st8" cx="93.4" cy="291.1" r="23.7"/>
<ellipse class="st8" cx="113.4" cy="282.2" rx="21" ry="16.5"/>
<ellipse class="st7" cx="114.3" cy="301.9" rx="4.7" ry="8.3"/>
<path class="st8" d="M178.7,424.2c0,0,12.8-7.3,15.1-5.5s3.4,7.6,3.4,7.6l-14.8,5.8l-4.3-7.9L178.7,424.2z"/>
</svg>
